<svg xmlns="http://www.w3.org/2000/svg" xmlns:xlink="http://www.w3.org/1999/xlink" width="500" zoomAndPan="magnify" viewBox="0 0 375 374.999991" height="500" preserveAspectRatio="xMidYMid meet" version="1.0"><defs><g/><clipPath id="87469c05e1"><path d="M 66 36 L 157 36 L 157 251.609375 L 66 251.609375 Z M 66 36 " clip-rule="nonzero"/></clipPath><clipPath id="6e496019a8"><path d="M 73 99 L 224 99 L 224 251.609375 L 73 251.609375 Z M 73 99 " clip-rule="nonzero"/></clipPath><clipPath id="d524cff26a"><path d="M 328 62 L 342.988281 62 L 342.988281 83 L 328 83 Z M 328 62 " clip-rule="nonzero"/></clipPath><clipPath id="d52378ea37"><path d="M 48.679688 163 L 64 163 L 64 179 L 48.679688 179 Z M 48.679688 163 " clip-rule="nonzero"/></clipPath><clipPath id="71fd21db9f"><path d="M 114 27.933594 L 293 27.933594 L 293 148 L 114 148 Z M 114 27.933594 " clip-rule="nonzero"/></clipPath></defs><g clip-path="url(#87469c05e1)"><path fill="#923b10" d="M 66.539062 248.265625 L 112.65625 251.210938 L 144.691406 220.171875 L 71.003906 142.90625 L 70.460938 117.015625 L 113.386719 96.578125 L 113.886719 85.601562 L 156.222656 46.582031 L 123.691406 36.1875 L 66.539062 86.824219 L 66.539062 248.265625 " fill-opacity="1" fill-rule="nonzero"/></g><g clip-path="url(#6e496019a8)"><path fill="#923b10" d="M 178.046875 251.242188 L 223.5625 251.242188 L 223.335938 235.769531 L 223.078125 149.828125 L 111.253906 149.828125 L 113.261719 99.621094 L 73.191406 118.703125 L 73.671875 141.804688 L 178.046875 251.242188 " fill-opacity="1" fill-rule="nonzero"/></g><path fill="#632303" d="M 226.269531 232.554688 L 245.015625 232.851562 L 245.015625 138.386719 L 225.773438 138.105469 L 226.269531 232.554688 " fill-opacity="1" fill-rule="nonzero"/><path fill="#923b10" d="M 279.753906 95.117188 L 294.980469 134.378906 L 330.472656 60.515625 L 311.765625 60.515625 L 279.753906 95.117188 " fill-opacity="1" fill-rule="nonzero"/><g clip-path="url(#d524cff26a)"><path fill="#632303" d="M 328.644531 70.535156 L 342.777344 82.308594 L 332.640625 62.21875 Z M 328.644531 70.535156 " fill-opacity="1" fill-rule="nonzero"/></g><path fill="#632303" d="M 171.621094 36.046875 L 119.578125 84.019531 L 162.570312 75.875 Z M 171.621094 36.046875 " fill-opacity="1" fill-rule="nonzero"/><g clip-path="url(#d52378ea37)"><path fill="#632303" d="M 48.9375 178.777344 L 63.847656 178.777344 L 63.847656 163.078125 Z M 48.9375 178.777344 " fill-opacity="1" fill-rule="nonzero"/></g><g clip-path="url(#71fd21db9f)"><path fill="#923b10" d="M 264.664062 63.640625 L 208.308594 27.917969 L 174.871094 33.324219 L 164.734375 77.921875 L 116.527344 86.832031 L 114.058594 147.132812 L 223.074219 147.132812 L 223.074219 135.375 L 292.871094 136.386719 L 264.664062 63.640625 " fill-opacity="1" fill-rule="nonzero"/></g><path fill="#ffffff" d="M 241.136719 89.589844 C 241.136719 92.761719 238.566406 95.332031 235.394531 95.332031 C 232.222656 95.332031 229.652344 92.761719 229.652344 89.589844 C 229.652344 86.417969 232.222656 83.847656 235.394531 83.847656 C 238.566406 83.847656 241.136719 86.417969 241.136719 89.589844 " fill-opacity="1" fill-rule="nonzero"/><g fill="#632303" fill-opacity="1"><g transform="translate(25.763835, 319.659287)"><g><path d="M 23.765625 0.34375 C 21.410156 0.96875 18.988281 1.160156 16.5 0.921875 C 14.019531 0.691406 11.695312 0.0234375 9.53125 -1.078125 C 7.363281 -2.179688 5.5625 -3.679688 4.125 -5.578125 C 2.882812 -7.285156 1.925781 -9.253906 1.25 -11.484375 C 0.570312 -13.710938 0.175781 -16.066406 0.0625 -18.546875 C -0.0507812 -21.023438 0.0625 -23.460938 0.40625 -25.859375 C 1.0625 -29.890625 2.4375 -33.300781 4.53125 -36.09375 C 6.625 -38.882812 9.238281 -40.820312 12.375 -41.90625 C 15.519531 -42.988281 18.988281 -42.988281 22.78125 -41.90625 C 25.300781 -41.25 27.269531 -40.28125 28.6875 -39 C 30.101562 -37.71875 31.117188 -36.28125 31.734375 -34.6875 C 32.359375 -33.101562 32.726562 -31.5 32.84375 -29.875 C 32.957031 -28.25 32.976562 -26.757812 32.90625 -25.40625 C 32.863281 -24.238281 32.164062 -23.554688 30.8125 -23.359375 L 22.546875 -23.140625 C 21.929688 -23.054688 21.390625 -23.21875 20.921875 -23.625 C 20.460938 -24.03125 20.210938 -24.546875 20.171875 -25.171875 C 20.171875 -25.398438 20.140625 -25.8125 20.078125 -26.40625 C 20.023438 -27.007812 19.898438 -27.617188 19.703125 -28.234375 C 19.503906 -28.859375 19.195312 -29.289062 18.78125 -29.53125 C 17.539062 -30.070312 16.597656 -29.960938 15.953125 -29.203125 C 15.316406 -28.453125 14.878906 -27.257812 14.640625 -25.625 C 14.410156 -24 14.296875 -22.140625 14.296875 -20.046875 L 14.296875 -19.765625 C 14.335938 -16.703125 14.800781 -14.453125 15.6875 -13.015625 C 16.582031 -11.585938 17.941406 -11.257812 19.765625 -12.03125 C 20.191406 -12.257812 20.488281 -12.675781 20.65625 -13.28125 C 20.832031 -13.882812 20.945312 -14.492188 21 -15.109375 C 21.0625 -15.734375 21.09375 -16.179688 21.09375 -16.453125 C 21.132812 -17.035156 21.382812 -17.53125 21.84375 -17.9375 C 22.3125 -18.34375 22.859375 -18.503906 23.484375 -18.421875 L 31.734375 -18.1875 C 33.128906 -18 33.847656 -17.300781 33.890625 -16.09375 C 33.960938 -14.78125 33.929688 -13.316406 33.796875 -11.703125 C 33.660156 -10.097656 33.28125 -8.5 32.65625 -6.90625 C 32.039062 -5.320312 31.035156 -3.890625 29.640625 -2.609375 C 28.242188 -1.335938 26.285156 -0.351562 23.765625 0.34375 Z M 23.765625 0.34375 "/></g></g></g><g fill="#632303" fill-opacity="1"><g transform="translate(62.019426, 319.659287)"><g><path d="M 2.09375 0.109375 C 1.59375 0.109375 1.128906 -0.0976562 0.703125 -0.515625 C 0.304688 -0.910156 0.109375 -1.457031 0.109375 -2.15625 L 0 -29.40625 C 0 -29.945312 0.210938 -30.472656 0.640625 -30.984375 C 1.066406 -31.441406 1.507812 -31.671875 1.96875 -31.671875 L 9.703125 -31.625 C 10.242188 -31.625 10.726562 -31.410156 11.15625 -30.984375 C 11.539062 -30.554688 11.734375 -30.015625 11.734375 -29.359375 C 12.398438 -30.085938 13.195312 -30.703125 14.125 -31.203125 C 15.050781 -31.710938 16.191406 -31.96875 17.546875 -31.96875 C 19.484375 -31.96875 21.1875 -31.550781 22.65625 -30.71875 C 24.132812 -29.882812 25.550781 -28.828125 26.90625 -27.546875 C 27.332031 -27.160156 27.554688 -26.707031 27.578125 -26.1875 C 27.597656 -25.664062 27.453125 -25.171875 27.140625 -24.703125 L 23.828125 -19.40625 C 23.515625 -18.90625 23.039062 -18.597656 22.40625 -18.484375 C 21.769531 -18.367188 21.160156 -18.46875 20.578125 -18.78125 C 20.035156 -19.082031 19.507812 -19.300781 19 -19.4375 C 18.5 -19.570312 17.941406 -19.640625 17.328125 -19.640625 C 15.390625 -19.640625 14.0625 -19.257812 13.34375 -18.5 C 12.625 -17.75 12.207031 -16.832031 12.09375 -15.75 L 12.375 -2.265625 C 12.457031 -1.648438 12.265625 -1.109375 11.796875 -0.640625 C 11.410156 -0.171875 10.925781 0.0625 10.34375 0.0625 Z M 2.09375 0.109375 "/></g></g></g><g fill="#632303" fill-opacity="1"><g transform="translate(91.88381, 319.659287)"><g><path d="M 19.296875 1.046875 C 18.015625 1.046875 17.472656 0.210938 17.671875 -1.453125 C 14.492188 0.441406 11.238281 1.160156 7.90625 0.703125 C 6.007812 0.429688 4.5 -0.109375 3.375 -0.921875 C 2.25 -1.742188 1.429688 -2.707031 0.921875 -3.8125 C 0.421875 -4.914062 0.140625 -6.046875 0.078125 -7.203125 C 0.0234375 -8.367188 0.078125 -9.4375 0.234375 -10.40625 C 0.546875 -11.988281 1.289062 -13.3125 2.46875 -14.375 C 3.65625 -15.445312 5.085938 -16.28125 6.765625 -16.875 C 8.453125 -17.476562 10.148438 -17.820312 11.859375 -17.90625 L 17.671875 -18.25 C 17.585938 -19.332031 17.488281 -20.191406 17.375 -20.828125 C 17.257812 -21.472656 16.941406 -21.921875 16.421875 -22.171875 C 15.898438 -22.421875 14.921875 -22.53125 13.484375 -22.5 C 12.828125 -22.5 12.332031 -22.320312 12 -21.96875 C 11.675781 -21.625 11.40625 -21.238281 11.1875 -20.8125 C 10.976562 -20.382812 10.742188 -20.015625 10.484375 -19.703125 C 10.234375 -19.390625 9.859375 -19.273438 9.359375 -19.359375 L 3.078125 -20.171875 C 2.535156 -20.242188 2.117188 -20.367188 1.828125 -20.546875 C 1.535156 -20.722656 1.390625 -21.039062 1.390625 -21.5 C 1.390625 -22.9375 1.570312 -24.265625 1.9375 -25.484375 C 2.3125 -26.703125 3.066406 -27.765625 4.203125 -28.671875 C 5.347656 -29.585938 7.066406 -30.300781 9.359375 -30.8125 C 11.765625 -31.351562 14.085938 -31.601562 16.328125 -31.5625 C 18.578125 -31.519531 20.617188 -31.160156 22.453125 -30.484375 C 24.296875 -29.804688 25.804688 -28.769531 26.984375 -27.375 C 28.171875 -25.976562 28.898438 -24.175781 29.171875 -21.96875 C 29.210938 -21.65625 29.253906 -20.519531 29.296875 -18.5625 C 29.335938 -16.613281 29.375 -14.097656 29.40625 -11.015625 C 29.445312 -7.929688 29.46875 -4.53125 29.46875 -0.8125 C 29.539062 -0.269531 29.351562 0.160156 28.90625 0.484375 C 28.46875 0.816406 28.070312 0.984375 27.71875 0.984375 Z M 15.6875 -12.609375 C 14.488281 -12.609375 13.597656 -12.296875 13.015625 -11.671875 C 12.429688 -11.054688 12.148438 -10.332031 12.171875 -9.5 C 12.191406 -8.664062 12.507812 -7.9375 13.125 -7.3125 C 13.75 -6.695312 14.664062 -6.390625 15.875 -6.390625 C 16.570312 -6.390625 16.921875 -6.660156 16.921875 -7.203125 L 16.921875 -11.796875 C 16.921875 -12.335938 16.507812 -12.609375 15.6875 -12.609375 Z M 15.6875 -12.609375 "/></g></g></g><g fill="#632303" fill-opacity="1"><g transform="translate(123.66555, 319.659287)"><g><path d="M 5.234375 0.515625 C 4.722656 0.515625 4.289062 0.347656 3.9375 0.015625 C 3.59375 -0.304688 3.421875 -0.71875 3.421875 -1.21875 L 3.421875 -16.328125 L 2.03125 -16.328125 C 1.332031 -16.328125 0.816406 -16.507812 0.484375 -16.875 C 0.160156 -17.25 0 -17.6875 0 -18.1875 L 0 -24.125 C 0 -24.582031 0.132812 -24.96875 0.40625 -25.28125 C 0.675781 -25.59375 1.21875 -25.75 2.03125 -25.75 L 3.421875 -25.75 L 3.421875 -26.046875 C 3.578125 -28.953125 3.828125 -31.273438 4.171875 -33.015625 C 4.523438 -34.753906 5.226562 -36.242188 6.28125 -37.484375 C 6.820312 -38.148438 7.578125 -38.914062 8.546875 -39.78125 C 9.515625 -40.65625 10.832031 -41.328125 12.5 -41.796875 C 13.738281 -42.140625 14.765625 -42.347656 15.578125 -42.421875 C 16.390625 -42.503906 16.953125 -42.160156 17.265625 -41.390625 C 17.535156 -40.765625 17.785156 -40.113281 18.015625 -39.4375 C 18.253906 -38.757812 18.488281 -38.09375 18.71875 -37.4375 C 19.257812 -36.113281 19.453125 -35.054688 19.296875 -34.265625 C 19.140625 -33.472656 18.554688 -32.742188 17.546875 -32.078125 C 16.460938 -31.578125 15.765625 -30.910156 15.453125 -30.078125 C 15.148438 -29.242188 14.976562 -27.859375 14.9375 -25.921875 L 17.09375 -25.921875 C 17.90625 -25.921875 18.394531 -25.753906 18.5625 -25.421875 C 18.738281 -25.097656 18.828125 -24.703125 18.828125 -24.234375 L 18.71875 -17.90625 C 18.71875 -17.4375 18.582031 -17.023438 18.3125 -16.671875 C 18.039062 -16.328125 17.457031 -16.15625 16.5625 -16.15625 L 15 -16.15625 L 15.171875 -1.21875 C 15.171875 -0.789062 15.003906 -0.394531 14.671875 -0.03125 C 14.347656 0.332031 13.929688 0.515625 13.421875 0.515625 Z M 5.234375 0.515625 "/></g></g></g><g fill="#632303" fill-opacity="1"><g transform="translate(145.33756, 319.659287)"><g><path d="M 5.875 0.40625 C 5.40625 0.40625 5.015625 0.191406 4.703125 -0.234375 C 4.359375 -0.660156 4.1875 -1.222656 4.1875 -1.921875 L 4.125 -21.734375 L 2.03125 -21.6875 C 1.21875 -21.644531 0.675781 -21.785156 0.40625 -22.109375 C 0.132812 -22.441406 0 -22.84375 0 -23.3125 L 0 -29.234375 C 0 -29.773438 0.160156 -30.21875 0.484375 -30.5625 C 0.816406 -30.914062 1.332031 -31.09375 2.03125 -31.09375 L 4.0625 -31.09375 L 4.0625 -39.171875 C 4.0625 -39.753906 4.238281 -40.296875 4.59375 -40.796875 C 4.9375 -41.265625 5.34375 -41.5 5.8125 -41.5 L 14.015625 -41.5 C 14.515625 -41.5 14.9375 -41.265625 15.28125 -40.796875 C 15.632812 -40.335938 15.8125 -39.796875 15.8125 -39.171875 L 15.921875 -31.265625 L 17.734375 -31.265625 C 18.617188 -31.265625 19.195312 -31.085938 19.46875 -30.734375 C 19.738281 -30.390625 19.875 -29.988281 19.875 -29.53125 L 20 -23.65625 C 20 -23.1875 19.910156 -22.796875 19.734375 -22.484375 C 19.554688 -22.179688 19.0625 -22.007812 18.25 -21.96875 L 16.046875 -21.90625 L 16.328125 -2.03125 C 16.410156 -1.375 16.238281 -0.8125 15.8125 -0.34375 C 15.425781 0.113281 15.019531 0.34375 14.59375 0.34375 Z M 5.875 0.40625 "/></g></g></g><g fill="#632303" fill-opacity="1"><g transform="translate(167.648689, 319.659287)"><g><path d="M 1.5625 0.875 C 1.0625 0.757812 0.734375 0.503906 0.578125 0.109375 C 0.421875 -0.273438 0.34375 -0.71875 0.34375 -1.21875 L 0.34375 -7.90625 C 0.34375 -8.488281 0.632812 -8.882812 1.21875 -9.09375 C 1.800781 -9.3125 2.519531 -9.421875 3.375 -9.421875 C 4.226562 -9.421875 5.085938 -9.390625 5.953125 -9.328125 C 6.828125 -9.265625 7.578125 -9.253906 8.203125 -9.296875 C 9.203125 -9.378906 9.875 -9.628906 10.21875 -10.046875 C 10.570312 -10.472656 10.59375 -10.957031 10.28125 -11.5 C 9.976562 -12.050781 9.320312 -12.519531 8.3125 -12.90625 C 5.40625 -13.988281 3.289062 -15.148438 1.96875 -16.390625 C 0.65625 -17.628906 0 -19.316406 0 -21.453125 C 0 -23.078125 0.226562 -24.546875 0.6875 -25.859375 C 1.15625 -27.179688 2.03125 -28.347656 3.3125 -29.359375 C 4.550781 -30.359375 6.085938 -30.992188 7.921875 -31.265625 C 9.765625 -31.535156 11.503906 -31.691406 13.140625 -31.734375 C 13.640625 -31.734375 14.394531 -31.734375 15.40625 -31.734375 C 16.414062 -31.734375 17.472656 -31.703125 18.578125 -31.640625 C 19.679688 -31.585938 20.65625 -31.492188 21.5 -31.359375 C 22.351562 -31.222656 22.898438 -31.039062 23.140625 -30.8125 C 23.328125 -30.613281 23.441406 -30.300781 23.484375 -29.875 C 23.523438 -29.445312 23.546875 -28.71875 23.546875 -27.6875 C 23.546875 -26.664062 23.523438 -25.109375 23.484375 -23.015625 C 23.484375 -21.890625 22.84375 -21.328125 21.5625 -21.328125 C 20.863281 -21.328125 20.078125 -21.351562 19.203125 -21.40625 C 18.335938 -21.46875 17.515625 -21.488281 16.734375 -21.46875 C 15.960938 -21.457031 15.363281 -21.351562 14.9375 -21.15625 C 14.195312 -20.882812 13.78125 -20.421875 13.6875 -19.765625 C 13.59375 -19.109375 14.007812 -18.566406 14.9375 -18.140625 C 15.476562 -17.867188 16.144531 -17.578125 16.9375 -17.265625 C 17.738281 -16.953125 18.523438 -16.625 19.296875 -16.28125 C 21.460938 -15.269531 22.960938 -13.875 23.796875 -12.09375 C 24.628906 -10.3125 24.757812 -8.332031 24.1875 -6.15625 C 23.945312 -5.226562 23.601562 -4.335938 23.15625 -3.484375 C 22.71875 -2.628906 22.09375 -1.875 21.28125 -1.21875 C 19.613281 0.0625 17.046875 0.785156 13.578125 0.953125 C 10.109375 1.128906 6.101562 1.101562 1.5625 0.875 Z M 1.5625 0.875 "/></g></g></g><g fill="#632303" fill-opacity="1"><g transform="translate(194.491776, 319.659287)"><g/></g></g><g fill="#632303" fill-opacity="1"><g transform="translate(214.246433, 319.659287)"><g><path d="M 2.03125 0.171875 C 1.300781 0.171875 0.738281 -0.132812 0.34375 -0.75 C 0.0703125 -1.21875 -0.0351562 -1.585938 0.015625 -1.859375 C 0.078125 -2.128906 0.171875 -2.613281 0.296875 -3.3125 L 8.890625 -39.125 C 9.046875 -39.695312 9.285156 -40.21875 9.609375 -40.6875 C 9.941406 -41.15625 10.378906 -41.390625 10.921875 -41.390625 L 25.515625 -41.390625 C 26.054688 -41.390625 26.488281 -41.15625 26.8125 -40.6875 C 27.144531 -40.21875 27.390625 -39.695312 27.546875 -39.125 L 36.15625 -3.3125 C 36.269531 -2.613281 36.363281 -2.128906 36.4375 -1.859375 C 36.519531 -1.585938 36.40625 -1.21875 36.09375 -0.75 C 35.707031 -0.132812 35.144531 0.171875 34.40625 0.171875 C 31.539062 0.171875 29.3125 0.179688 27.71875 0.203125 C 26.132812 0.222656 24.992188 0.164062 24.296875 0.03125 C 23.597656 -0.101562 23.128906 -0.410156 22.890625 -0.890625 C 22.660156 -1.378906 22.453125 -2.148438 22.265625 -3.203125 L 21.90625 -5 L 14.53125 -5 L 14.1875 -3.203125 C 13.988281 -2.148438 13.769531 -1.378906 13.53125 -0.890625 C 13.300781 -0.410156 12.835938 -0.101562 12.140625 0.03125 C 11.453125 0.164062 10.3125 0.222656 8.71875 0.203125 C 7.125 0.179688 4.894531 0.171875 2.03125 0.171875 Z M 16.5 -16.21875 L 19.9375 -16.21875 L 18.25 -25.859375 Z M 16.5 -16.21875 "/></g></g></g><g fill="#632303" fill-opacity="1"><g transform="translate(253.000389, 319.659287)"><g><path d="M 21.6875 0.46875 C 21.132812 0.46875 20.648438 0.234375 20.234375 -0.234375 C 20.148438 -0.304688 20.078125 -0.398438 20.015625 -0.515625 C 19.960938 -0.640625 19.898438 -0.757812 19.828125 -0.875 C 16.835938 0.0507812 14.113281 0.515625 11.65625 0.515625 C 9.195312 0.515625 7.171875 0.0507812 5.578125 -0.875 C 3.722656 -2 2.40625 -3.273438 1.625 -4.703125 C 0.851562 -6.140625 0.398438 -7.921875 0.265625 -10.046875 C 0.128906 -12.179688 0.0390625 -14.859375 0 -18.078125 L 0.0625 -29.40625 C 0.0625 -30.070312 0.234375 -30.597656 0.578125 -30.984375 C 1.003906 -31.441406 1.429688 -31.671875 1.859375 -31.671875 L 10.46875 -31.671875 C 10.925781 -31.671875 11.332031 -31.441406 11.6875 -30.984375 C 12.03125 -30.515625 12.203125 -29.988281 12.203125 -29.40625 L 12.09375 -15 C 12.164062 -12.976562 12.539062 -11.375 13.21875 -10.1875 C 13.894531 -9.007812 14.953125 -8.675781 16.390625 -9.1875 C 17.203125 -9.414062 17.890625 -9.878906 18.453125 -10.578125 C 19.015625 -11.273438 19.332031 -11.816406 19.40625 -12.203125 L 19 -28.890625 C 18.96875 -29.503906 19.164062 -30.066406 19.59375 -30.578125 C 20.019531 -31.003906 20.503906 -31.21875 21.046875 -31.21875 L 30.171875 -31.265625 C 30.671875 -31.265625 31.132812 -31.050781 31.5625 -30.625 C 31.945312 -30.238281 32.140625 -29.695312 32.140625 -29 L 32.265625 -1.75 C 32.265625 -1.125 32.066406 -0.597656 31.671875 -0.171875 C 31.285156 0.285156 30.820312 0.515625 30.28125 0.515625 Z M 21.6875 0.46875 "/></g></g></g><g fill="#632303" fill-opacity="1"><g transform="translate(287.571024, 319.659287)"><g><path d="M 2.09375 0.109375 C 1.59375 0.109375 1.128906 -0.0976562 0.703125 -0.515625 C 0.304688 -0.910156 0.109375 -1.457031 0.109375 -2.15625 L 0 -29.40625 C 0 -29.945312 0.210938 -30.472656 0.640625 -30.984375 C 1.066406 -31.441406 1.507812 -31.671875 1.96875 -31.671875 L 9.703125 -31.625 C 10.242188 -31.625 10.726562 -31.410156 11.15625 -30.984375 C 11.539062 -30.554688 11.734375 -30.015625 11.734375 -29.359375 C 12.398438 -30.085938 13.195312 -30.703125 14.125 -31.203125 C 15.050781 -31.710938 16.191406 -31.96875 17.546875 -31.96875 C 19.484375 -31.96875 21.1875 -31.550781 22.65625 -30.71875 C 24.132812 -29.882812 25.550781 -28.828125 26.90625 -27.546875 C 27.332031 -27.160156 27.554688 -26.707031 27.578125 -26.1875 C 27.597656 -25.664062 27.453125 -25.171875 27.140625 -24.703125 L 23.828125 -19.40625 C 23.515625 -18.90625 23.039062 -18.597656 22.40625 -18.484375 C 21.769531 -18.367188 21.160156 -18.46875 20.578125 -18.78125 C 20.035156 -19.082031 19.507812 -19.300781 19 -19.4375 C 18.5 -19.570312 17.941406 -19.640625 17.328125 -19.640625 C 15.390625 -19.640625 14.0625 -19.257812 13.34375 -18.5 C 12.625 -17.75 12.207031 -16.832031 12.09375 -15.75 L 12.375 -2.265625 C 12.457031 -1.648438 12.265625 -1.109375 11.796875 -0.640625 C 11.410156 -0.171875 10.925781 0.0625 10.34375 0.0625 Z M 2.09375 0.109375 "/></g></g></g><g fill="#632303" fill-opacity="1"><g transform="translate(317.435409, 319.659287)"><g><path d="M 19.296875 1.046875 C 18.015625 1.046875 17.472656 0.210938 17.671875 -1.453125 C 14.492188 0.441406 11.238281 1.160156 7.90625 0.703125 C 6.007812 0.429688 4.5 -0.109375 3.375 -0.921875 C 2.25 -1.742188 1.429688 -2.707031 0.921875 -3.8125 C 0.421875 -4.914062 0.140625 -6.046875 0.078125 -7.203125 C 0.0234375 -8.367188 0.078125 -9.4375 0.234375 -10.40625 C 0.546875 -11.988281 1.289062 -13.3125 2.46875 -14.375 C 3.65625 -15.445312 5.085938 -16.28125 6.765625 -16.875 C 8.453125 -17.476562 10.148438 -17.820312 11.859375 -17.90625 L 17.671875 -18.25 C 17.585938 -19.332031 17.488281 -20.191406 17.375 -20.828125 C 17.257812 -21.472656 16.941406 -21.921875 16.421875 -22.171875 C 15.898438 -22.421875 14.921875 -22.53125 13.484375 -22.5 C 12.828125 -22.5 12.332031 -22.320312 12 -21.96875 C 11.675781 -21.625 11.40625 -21.238281 11.1875 -20.8125 C 10.976562 -20.382812 10.742188 -20.015625 10.484375 -19.703125 C 10.234375 -19.390625 9.859375 -19.273438 9.359375 -19.359375 L 3.078125 -20.171875 C 2.535156 -20.242188 2.117188 -20.367188 1.828125 -20.546875 C 1.535156 -20.722656 1.390625 -21.039062 1.390625 -21.5 C 1.390625 -22.9375 1.570312 -24.265625 1.9375 -25.484375 C 2.3125 -26.703125 3.066406 -27.765625 4.203125 -28.671875 C 5.347656 -29.585938 7.066406 -30.300781 9.359375 -30.8125 C 11.765625 -31.351562 14.085938 -31.601562 16.328125 -31.5625 C 18.578125 -31.519531 20.617188 -31.160156 22.453125 -30.484375 C 24.296875 -29.804688 25.804688 -28.769531 26.984375 -27.375 C 28.171875 -25.976562 28.898438 -24.175781 29.171875 -21.96875 C 29.210938 -21.65625 29.253906 -20.519531 29.296875 -18.5625 C 29.335938 -16.613281 29.375 -14.097656 29.40625 -11.015625 C 29.445312 -7.929688 29.46875 -4.53125 29.46875 -0.8125 C 29.539062 -0.269531 29.351562 0.160156 28.90625 0.484375 C 28.46875 0.816406 28.070312 0.984375 27.71875 0.984375 Z M 15.6875 -12.609375 C 14.488281 -12.609375 13.597656 -12.296875 13.015625 -11.671875 C 12.429688 -11.054688 12.148438 -10.332031 12.171875 -9.5 C 12.191406 -8.664062 12.507812 -7.9375 13.125 -7.3125 C 13.75 -6.695312 14.664062 -6.390625 15.875 -6.390625 C 16.570312 -6.390625 16.921875 -6.660156 16.921875 -7.203125 L 16.921875 -11.796875 C 16.921875 -12.335938 16.507812 -12.609375 15.6875 -12.609375 Z M 15.6875 -12.609375 "/></g></g></g></svg>