<svg xmlns="http://www.w3.org/2000/svg" xmlns:xlink="http://www.w3.org/1999/xlink" width="500" zoomAndPan="magnify" viewBox="0 0 375 374.999991" height="500" preserveAspectRatio="xMidYMid meet" version="1.0"><defs><clipPath id="399b8d65d9"><path d="M 0 64.21875 L 375 64.21875 L 375 97 L 0 97 Z M 0 64.21875 " clip-rule="nonzero"/></clipPath><clipPath id="6f896bcb1b"><path d="M 0 278 L 375 278 L 375 310.96875 L 0 310.96875 Z M 0 278 " clip-rule="nonzero"/></clipPath><clipPath id="3627d1a633"><path d="M 169.175781 185 L 206.675781 185 L 206.675781 191 L 169.175781 191 Z M 169.175781 185 " clip-rule="nonzero"/></clipPath><clipPath id="97face1939"><path d="M 169.175781 196 L 206.675781 196 L 206.675781 201.515625 L 169.175781 201.515625 Z M 169.175781 196 " clip-rule="nonzero"/></clipPath><clipPath id="e05a9ac7d9"><path d="M 169.175781 174.515625 L 206.675781 174.515625 L 206.675781 180 L 169.175781 180 Z M 169.175781 174.515625 " clip-rule="nonzero"/></clipPath></defs><g clip-path="url(#399b8d65d9)"><path fill="#000000" d="M 374.992188 80.375 C 374.992188 89.257812 367.796875 96.457031 358.921875 96.457031 L 16.078125 96.457031 C 7.203125 96.457031 0.0078125 89.257812 0.0078125 80.375 C 0.0078125 71.492188 7.203125 64.292969 16.078125 64.292969 L 358.921875 64.292969 C 367.796875 64.292969 374.992188 71.492188 374.992188 80.375 Z M 374.992188 80.375 " fill-opacity="1" fill-rule="evenodd"/></g><path fill="#000000" d="M 374.992188 187.597656 C 374.992188 196.476562 367.796875 203.679688 358.921875 203.679688 L 16.078125 203.679688 C 7.203125 203.679688 0.0078125 196.476562 0.0078125 187.597656 C 0.0078125 178.714844 7.203125 171.511719 16.078125 171.511719 L 358.921875 171.511719 C 367.796875 171.511719 374.992188 178.714844 374.992188 187.597656 Z M 374.992188 187.597656 " fill-opacity="1" fill-rule="evenodd"/><g clip-path="url(#6f896bcb1b)"><path fill="#000000" d="M 374.992188 294.816406 C 374.992188 303.699219 367.796875 310.898438 358.921875 310.898438 L 16.078125 310.898438 C 7.203125 310.898438 0.0078125 303.699219 0.0078125 294.816406 C 0.0078125 285.933594 7.203125 278.734375 16.078125 278.734375 L 358.921875 278.734375 C 367.796875 278.734375 374.992188 285.933594 374.992188 294.816406 Z M 374.992188 294.816406 " fill-opacity="1" fill-rule="evenodd"/></g><g clip-path="url(#3627d1a633)"><path fill="#000000" d="M 204.332031 185.632812 L 171.519531 185.632812 C 170.226562 185.632812 169.175781 186.699219 169.175781 188.015625 C 169.175781 189.328125 170.226562 190.394531 171.519531 190.394531 L 204.332031 190.394531 C 205.628906 190.394531 206.675781 189.328125 206.675781 188.015625 C 206.675781 186.699219 205.628906 185.632812 204.332031 185.632812 Z M 204.332031 185.632812 " fill-opacity="1" fill-rule="nonzero"/></g><g clip-path="url(#97face1939)"><path fill="#000000" d="M 204.332031 196.746094 L 171.519531 196.746094 C 170.226562 196.746094 169.175781 197.8125 169.175781 199.125 C 169.175781 200.441406 170.226562 201.507812 171.519531 201.507812 L 204.332031 201.507812 C 205.628906 201.507812 206.675781 200.441406 206.675781 199.125 C 206.675781 197.8125 205.628906 196.746094 204.332031 196.746094 Z M 204.332031 196.746094 " fill-opacity="1" fill-rule="nonzero"/></g><g clip-path="url(#e05a9ac7d9)"><path fill="#000000" d="M 171.519531 179.28125 L 204.332031 179.28125 C 205.628906 179.28125 206.675781 178.214844 206.675781 176.902344 C 206.675781 175.585938 205.628906 174.519531 204.332031 174.519531 L 171.519531 174.519531 C 170.226562 174.519531 169.175781 175.585938 169.175781 176.902344 C 169.175781 178.214844 170.226562 179.28125 171.519531 179.28125 Z M 171.519531 179.28125 " fill-opacity="1" fill-rule="nonzero"/></g></svg>