<svg xmlns="http://www.w3.org/2000/svg" xmlns:xlink="http://www.w3.org/1999/xlink" width="500" zoomAndPan="magnify" viewBox="0 0 375 374.999991" height="500" preserveAspectRatio="xMidYMid meet" version="1.0"><path fill="#000000" d="M 211.007812 187.5625 L 281.332031 117.234375 C 287.804688 110.765625 287.816406 100.253906 281.34375 93.78125 C 274.882812 87.320312 264.367188 87.308594 257.886719 93.789062 L 187.5625 164.117188 L 117.238281 93.789062 C 110.765625 87.320312 100.257812 87.304688 93.78125 93.78125 C 87.320312 100.242188 87.3125 110.753906 93.792969 117.234375 L 164.117188 187.5625 L 93.792969 257.886719 C 87.320312 264.355469 87.308594 274.867188 93.78125 281.339844 C 100.242188 287.800781 110.757812 287.8125 117.238281 281.332031 L 187.5625 211.007812 L 257.886719 281.332031 C 264.359375 287.800781 274.871094 287.816406 281.34375 281.339844 C 287.804688 274.878906 287.8125 264.367188 281.332031 257.886719 Z M 211.007812 187.5625 " fill-opacity="1" fill-rule="evenodd"/><path fill="#000000" d="M 196.902344 187.523438 L 225.035156 159.394531 C 227.621094 156.804688 227.628906 152.601562 225.039062 150.011719 C 222.453125 147.425781 218.246094 147.425781 215.65625 150.015625 L 187.523438 178.144531 L 159.394531 150.015625 C 156.804688 147.425781 152.601562 147.421875 150.011719 150.011719 C 147.429688 152.597656 147.425781 156.800781 150.015625 159.394531 L 178.148438 187.523438 L 150.015625 215.65625 C 147.429688 218.242188 147.421875 222.445312 150.011719 225.035156 C 152.597656 227.621094 156.804688 227.625 159.394531 225.03125 L 187.523438 196.902344 L 215.65625 225.03125 C 218.242188 227.621094 222.449219 227.625 225.039062 225.035156 C 227.621094 222.453125 227.625 218.246094 225.035156 215.65625 Z M 196.902344 187.523438 " fill-opacity="1" fill-rule="evenodd"/></svg>