<svg xmlns="http://www.w3.org/2000/svg" xmlns:xlink="http://www.w3.org/1999/xlink" width="500" zoomAndPan="magnify" viewBox="0 0 375 374.999991" height="500" preserveAspectRatio="xMidYMid meet" version="1.0"><defs><clipPath id="0203dfdbfa"><path d="M 77.089844 146.71875 L 143.839844 146.71875 L 143.839844 213.46875 L 77.089844 213.46875 Z M 77.089844 146.71875 " clip-rule="nonzero"/></clipPath></defs><g clip-path="url(#0203dfdbfa)"><path fill="#e63946" d="M 122.171875 146.71875 L 98.757812 146.71875 C 98.0625 146.710938 97.398438 146.835938 96.753906 147.101562 C 96.113281 147.363281 95.546875 147.742188 95.058594 148.230469 L 78.605469 164.6875 C 78.113281 165.175781 77.734375 165.742188 77.472656 166.382812 C 77.210938 167.023438 77.082031 167.691406 77.089844 168.386719 L 77.089844 191.800781 C 77.082031 192.492188 77.210938 193.160156 77.472656 193.800781 C 77.734375 194.441406 78.113281 195.007812 78.605469 195.496094 L 95.058594 211.953125 C 95.539062 212.433594 96.09375 212.808594 96.71875 213.070312 C 97.347656 213.332031 98 213.464844 98.679688 213.46875 L 122.09375 213.46875 C 122.800781 213.484375 123.480469 213.363281 124.136719 213.101562 C 124.792969 212.835938 125.371094 212.453125 125.867188 211.953125 L 142.324219 195.496094 C 142.816406 195.007812 143.191406 194.441406 143.457031 193.800781 C 143.71875 193.160156 143.847656 192.492188 143.839844 191.800781 L 143.839844 168.386719 C 143.847656 167.691406 143.71875 167.023438 143.457031 166.382812 C 143.191406 165.742188 142.816406 165.175781 142.324219 164.6875 L 125.867188 148.230469 C 125.378906 147.742188 124.8125 147.363281 124.171875 147.101562 C 123.53125 146.835938 122.863281 146.710938 122.171875 146.71875 Z M 122.171875 146.71875 " fill-opacity="1" fill-rule="nonzero"/></g><path fill="#edebea" d="M 115.597656 198.0625 C 115.597656 198.402344 115.566406 198.734375 115.5 199.066406 C 115.433594 199.394531 115.335938 199.71875 115.207031 200.027344 C 115.078125 200.339844 114.921875 200.636719 114.734375 200.917969 C 114.546875 201.195312 114.332031 201.457031 114.09375 201.695312 C 113.855469 201.933594 113.597656 202.144531 113.316406 202.332031 C 113.035156 202.519531 112.742188 202.679688 112.429688 202.808594 C 112.117188 202.9375 111.796875 203.035156 111.464844 203.097656 C 111.136719 203.164062 110.800781 203.199219 110.464844 203.199219 C 110.125 203.199219 109.792969 203.164062 109.460938 203.097656 C 109.132812 203.035156 108.808594 202.9375 108.5 202.808594 C 108.1875 202.679688 107.890625 202.519531 107.609375 202.332031 C 107.332031 202.144531 107.070312 201.933594 106.832031 201.695312 C 106.59375 201.457031 106.382812 201.195312 106.195312 200.917969 C 106.007812 200.636719 105.847656 200.339844 105.71875 200.027344 C 105.589844 199.71875 105.492188 199.394531 105.429688 199.066406 C 105.363281 198.734375 105.328125 198.402344 105.328125 198.0625 C 105.328125 197.726562 105.363281 197.394531 105.429688 197.0625 C 105.492188 196.730469 105.589844 196.410156 105.71875 196.097656 C 105.847656 195.789062 106.007812 195.492188 106.195312 195.210938 C 106.382812 194.929688 106.59375 194.671875 106.832031 194.433594 C 107.070312 194.195312 107.332031 193.980469 107.609375 193.792969 C 107.890625 193.605469 108.1875 193.449219 108.5 193.320312 C 108.808594 193.191406 109.132812 193.09375 109.460938 193.027344 C 109.792969 192.960938 110.125 192.929688 110.464844 192.929688 C 110.800781 192.929688 111.136719 192.960938 111.464844 193.027344 C 111.796875 193.09375 112.117188 193.191406 112.429688 193.320312 C 112.742188 193.449219 113.035156 193.605469 113.316406 193.792969 C 113.597656 193.980469 113.855469 194.195312 114.09375 194.433594 C 114.332031 194.671875 114.546875 194.929688 114.734375 195.210938 C 114.921875 195.492188 115.078125 195.789062 115.207031 196.097656 C 115.335938 196.410156 115.433594 196.730469 115.5 197.0625 C 115.566406 197.394531 115.597656 197.726562 115.597656 198.0625 Z M 115.597656 198.0625 " fill-opacity="1" fill-rule="nonzero"/><path fill="#edebea" d="M 113.289062 182.660156 L 107.640625 182.660156 C 107.320312 182.660156 107.011719 182.605469 106.714844 182.492188 C 106.414062 182.378906 106.148438 182.214844 105.910156 182 C 105.671875 181.789062 105.480469 181.539062 105.335938 181.253906 C 105.191406 180.96875 105.105469 180.667969 105.074219 180.347656 L 103.019531 159.8125 C 102.980469 159.449219 103.019531 159.09375 103.136719 158.75 C 103.25 158.402344 103.429688 158.097656 103.671875 157.828125 C 103.917969 157.558594 104.207031 157.351562 104.539062 157.203125 C 104.875 157.058594 105.222656 156.984375 105.585938 156.988281 L 115.339844 156.988281 C 115.707031 156.984375 116.054688 157.058594 116.386719 157.203125 C 116.71875 157.351562 117.007812 157.558594 117.253906 157.828125 C 117.5 158.097656 117.679688 158.402344 117.792969 158.75 C 117.90625 159.09375 117.945312 159.449219 117.910156 159.8125 L 115.855469 180.347656 C 115.824219 180.667969 115.734375 180.96875 115.589844 181.253906 C 115.445312 181.539062 115.253906 181.789062 115.019531 182 C 114.78125 182.214844 114.511719 182.378906 114.214844 182.492188 C 113.917969 182.605469 113.605469 182.660156 113.289062 182.660156 Z M 113.289062 182.660156 " fill-opacity="1" fill-rule="nonzero"/><path fill="#be1e2d" d="M 187.519531 375.042969 C 162.203125 375.042969 137.640625 370.082031 114.519531 360.304688 C 92.179688 350.855469 72.125 337.347656 54.910156 320.132812 C 37.695312 302.910156 24.1875 282.863281 14.734375 260.519531 C 4.960938 237.398438 0 212.839844 0 187.519531 C 0 162.203125 4.960938 137.640625 14.734375 114.519531 C 24.1875 92.179688 37.695312 72.125 54.910156 54.910156 C 72.125 37.695312 92.179688 24.183594 114.519531 14.734375 C 137.640625 4.960938 162.203125 0 187.519531 0 C 212.835938 0 237.398438 4.960938 260.519531 14.734375 C 282.863281 24.183594 302.910156 37.695312 320.132812 54.910156 C 337.347656 72.125 350.855469 92.179688 360.300781 114.519531 C 370.082031 137.640625 375.042969 162.203125 375.042969 187.519531 C 375.042969 212.835938 370.082031 237.398438 360.300781 260.519531 C 350.855469 282.863281 337.347656 302.910156 320.132812 320.132812 C 302.910156 337.347656 282.863281 350.855469 260.519531 360.304688 C 237.398438 370.082031 212.835938 375.042969 187.519531 375.042969 Z M 187.519531 23.617188 C 165.390625 23.617188 143.925781 27.9375 123.730469 36.488281 C 104.222656 44.753906 86.675781 56.5625 71.628906 71.628906 C 56.5625 86.699219 44.757812 104.222656 36.488281 123.730469 C 27.9375 143.925781 23.617188 165.394531 23.617188 187.519531 C 23.617188 209.648438 27.9375 231.117188 36.488281 251.308594 C 44.757812 270.816406 56.5625 288.367188 71.628906 303.410156 C 86.699219 318.476562 104.222656 330.285156 123.730469 338.550781 C 143.925781 347.105469 165.394531 351.421875 187.519531 351.421875 C 209.648438 351.421875 231.117188 347.105469 251.308594 338.550781 C 270.816406 330.285156 288.367188 318.476562 303.410156 303.410156 C 318.476562 288.34375 330.285156 270.816406 338.550781 251.308594 C 347.105469 231.117188 351.421875 209.648438 351.421875 187.519531 C 351.421875 165.394531 347.105469 143.925781 338.550781 123.730469 C 330.285156 104.222656 318.476562 86.675781 303.410156 71.628906 C 288.34375 56.5625 270.816406 44.753906 251.308594 36.488281 C 231.117188 27.9375 209.648438 23.617188 187.519531 23.617188 " fill-opacity="1" fill-rule="evenodd"/><path fill="#be1e2d" d="M 328.066406 187.519531 C 328.066406 110.109375 264.929688 46.972656 187.519531 46.972656 C 110.109375 46.972656 46.972656 110.109375 46.972656 187.519531 C 46.972656 264.925781 110.109375 328.0625 187.519531 328.0625 C 264.929688 328.0625 328.066406 264.925781 328.066406 187.519531 " fill-opacity="1" fill-rule="evenodd"/><path fill="#ffffff" d="M 195.621094 239.125 L 179.417969 239.125 C 178.074219 239.125 176.941406 238.085938 176.824219 236.761719 L 163.453125 93.664062 C 163.316406 92.132812 164.519531 90.808594 166.050781 90.808594 L 208.988281 90.808594 C 210.523438 90.808594 211.726562 92.132812 211.585938 93.664062 L 198.21875 236.761719 C 198.101562 238.109375 196.96875 239.125 195.621094 239.125 " fill-opacity="1" fill-rule="evenodd"/><path fill="#ffffff" d="M 200.910156 270.816406 C 200.910156 263.429688 194.898438 257.40625 187.519531 257.40625 C 180.144531 257.40625 174.128906 263.429688 174.128906 270.816406 C 174.128906 278.203125 180.144531 284.234375 187.519531 284.234375 C 194.898438 284.234375 200.910156 278.203125 200.910156 270.816406 " fill-opacity="1" fill-rule="evenodd"/></svg>