<svg xmlns="http://www.w3.org/2000/svg" xmlns:xlink="http://www.w3.org/1999/xlink" width="500" zoomAndPan="magnify" viewBox="0 0 375 374.999991" height="500" preserveAspectRatio="xMidYMid meet" version="1.0"><defs><clipPath id="4bc342bf72"><path d="M 124.835938 100 L 194 100 L 194 171 L 124.835938 171 Z M 124.835938 100 " clip-rule="nonzero"/></clipPath><clipPath id="5c5b323639"><path d="M 142 105 L 199.835938 105 L 199.835938 155 L 142 155 Z M 142 105 " clip-rule="nonzero"/></clipPath></defs><g clip-path="url(#4bc342bf72)"><path fill="#199b00" d="M 189.101562 122.84375 C 189.285156 123.289062 189.464844 123.742188 189.628906 124.199219 C 189.960938 125.109375 190.261719 126.03125 190.519531 126.96875 C 190.78125 127.902344 191.003906 128.847656 191.191406 129.796875 C 191.242188 130.035156 191.28125 130.273438 191.328125 130.515625 L 191.4375 131.234375 C 191.507812 131.710938 191.597656 132.191406 191.636719 132.671875 L 191.714844 133.367188 L 191.753906 133.710938 C 191.769531 133.828125 191.769531 133.941406 191.777344 134.058594 C 191.808594 134.523438 191.839844 134.984375 191.867188 135.449219 C 191.878906 135.871094 191.859375 136.304688 191.84375 136.734375 C 191.84375 136.9375 191.8125 137.179688 191.789062 137.421875 C 191.769531 137.664062 191.75 137.902344 191.753906 138.097656 C 191.75 137.75 191.746094 137.402344 191.742188 137.050781 C 191.730469 136.699219 191.707031 136.34375 191.695312 135.992188 C 191.6875 135.816406 191.679688 135.636719 191.671875 135.460938 C 191.664062 135.285156 191.640625 135.105469 191.628906 134.929688 C 191.597656 134.574219 191.566406 134.21875 191.535156 133.863281 C 191.496094 133.507812 191.445312 133.152344 191.398438 132.796875 L 191.332031 132.269531 C 191.304688 132.089844 191.269531 131.917969 191.238281 131.742188 C 191.175781 131.390625 191.117188 131.042969 191.054688 130.691406 C 190.984375 130.347656 190.910156 130.003906 190.828125 129.664062 C 190.929688 130.125 191.023438 130.59375 191.089844 131.0625 L 191.203125 131.769531 C 191.238281 132.003906 191.28125 132.238281 191.300781 132.476562 C 191.347656 132.949219 191.40625 133.425781 191.441406 133.902344 L 191.515625 135.332031 C 191.5625 137.246094 191.421875 139.171875 191.089844 141.058594 L 191.007812 141.550781 C 190.976562 141.710938 190.9375 141.875 190.902344 142.035156 L 190.683594 143.007812 C 190.601562 143.328125 190.507812 143.644531 190.421875 143.964844 L 190.285156 144.441406 C 190.242188 144.601562 190.183594 144.757812 190.132812 144.914062 C 191.203125 141.167969 191.554688 137.246094 191.199219 133.40625 L 191.082031 132.300781 C 191.03125 131.933594 190.96875 131.566406 190.910156 131.203125 L 190.824219 130.652344 L 190.71875 130.105469 L 190.605469 129.5625 L 190.480469 129.023438 C 190.332031 128.402344 190.132812 127.757812 189.996094 127.144531 C 189.84375 126.476562 189.609375 125.78125 189.386719 125.128906 L 189.417969 125.25 C 189.515625 125.65625 189.660156 126.121094 189.757812 126.523438 C 189.886719 127.042969 190.007812 127.566406 190.121094 128.089844 C 190.265625 128.769531 190.394531 129.449219 190.507812 130.136719 L 190.59375 130.652344 L 190.660156 131.167969 L 190.796875 132.203125 C 190.832031 132.546875 190.859375 132.894531 190.890625 133.242188 L 190.9375 133.761719 C 190.949219 133.933594 190.953125 134.109375 190.960938 134.28125 C 190.976562 134.628906 190.988281 134.976562 191.003906 135.324219 C 191.007812 135.671875 191 136.019531 190.996094 136.367188 C 190.96875 138.542969 190.707031 140.734375 190.199219 142.871094 C 189.695312 145.007812 188.933594 147.089844 187.953125 149.050781 C 188.058594 148.84375 188.15625 148.53125 188.226562 148.3125 C 188.320312 148.054688 188.414062 147.796875 188.507812 147.539062 C 188.636719 147.21875 188.742188 146.886719 188.847656 146.554688 C 188.902344 146.390625 188.957031 146.226562 189.007812 146.0625 C 189.058594 145.898438 189.113281 145.738281 189.148438 145.570312 C 189.558594 144.027344 190.003906 142.292969 190.246094 140.675781 C 190.527344 138.808594 190.636719 136.921875 190.570312 135.042969 C 190.546875 134.601562 190.53125 134.164062 190.492188 133.730469 C 190.445312 133.296875 190.394531 132.863281 190.347656 132.433594 C 190.289062 132 190.207031 131.574219 190.136719 131.144531 C 190.101562 130.929688 190.066406 130.714844 190.019531 130.503906 C 189.976562 130.289062 189.929688 130.078125 189.882812 129.863281 C 189.738281 129.230469 189.570312 128.609375 189.382812 127.996094 C 189.605469 128.894531 189.78125 129.808594 189.921875 130.722656 L 190.09375 132.105469 C 190.125 132.332031 190.132812 132.566406 190.152344 132.796875 L 190.203125 133.488281 C 190.304688 135.339844 190.238281 137.195312 190 139.027344 L 189.90625 139.714844 C 189.894531 139.832031 189.875 139.945312 189.851562 140.058594 L 189.789062 140.402344 C 189.703125 140.855469 189.632812 141.3125 189.515625 141.761719 C 189.464844 141.972656 189.417969 142.1875 189.371094 142.398438 L 189.304688 142.722656 L 189.222656 143.039062 L 189.058594 143.675781 L 188.976562 143.996094 L 188.9375 144.15625 L 188.886719 144.3125 C 188.359375 146.097656 187.660156 147.835938 186.796875 149.492188 C 186.648438 149.777344 186.488281 150.058594 186.332031 150.339844 L 186.097656 150.765625 C 186.019531 150.902344 185.929688 151.039062 185.847656 151.175781 L 185.339844 152 C 185.160156 152.269531 184.972656 152.53125 184.792969 152.796875 L 184.519531 153.195312 C 184.425781 153.328125 184.324219 153.453125 184.226562 153.582031 L 183.640625 154.351562 C 183.4375 154.601562 183.226562 154.84375 183.019531 155.089844 L 182.707031 155.460938 C 182.601562 155.582031 182.488281 155.695312 182.378906 155.816406 C 182.113281 156.082031 181.859375 156.335938 181.625 156.570312 C 181.378906 156.796875 181.152344 157.003906 180.941406 157.195312 C 180.835938 157.289062 180.738281 157.378906 180.644531 157.464844 C 180.546875 157.550781 180.449219 157.625 180.363281 157.695312 C 180.183594 157.835938 180.023438 157.953125 179.886719 158.050781 L 180.570312 157.453125 L 181.222656 156.824219 L 181.550781 156.507812 C 181.65625 156.402344 181.757812 156.289062 181.859375 156.175781 L 182.476562 155.511719 C 182.582031 155.402344 182.675781 155.28125 182.773438 155.167969 L 183.0625 154.820312 L 183.355469 154.46875 L 183.5 154.296875 L 183.632812 154.113281 C 183.996094 153.628906 184.371094 153.152344 184.695312 152.644531 C 184.863281 152.390625 185.039062 152.144531 185.199219 151.890625 L 185.667969 151.113281 L 185.902344 150.726562 L 186.117188 150.328125 L 186.546875 149.535156 C 186.683594 149.265625 186.804688 148.992188 186.9375 148.722656 C 187.066406 148.449219 187.207031 148.183594 187.316406 147.90625 C 187.546875 147.351562 187.796875 146.804688 187.992188 146.242188 C 189.308594 142.734375 189.945312 138.9375 189.832031 135.199219 C 189.816406 134.859375 189.800781 134.519531 189.785156 134.179688 L 189.773438 133.921875 C 189.769531 133.835938 189.757812 133.75 189.753906 133.667969 L 189.703125 133.15625 L 189.632812 132.429688 C 189.605469 132.1875 189.5625 131.945312 189.527344 131.703125 C 189.480469 131.386719 189.449219 131.015625 189.371094 130.714844 C 189.363281 130.679688 189.355469 130.644531 189.347656 130.613281 C 189.375 130.832031 189.402344 131.066406 189.433594 131.300781 C 189.46875 131.535156 189.5 131.773438 189.53125 131.992188 L 189.578125 132.351562 C 189.59375 132.46875 189.597656 132.589844 189.609375 132.707031 L 189.664062 133.421875 C 189.78125 135.195312 189.765625 136.96875 189.601562 138.734375 C 189.433594 140.5 189.121094 142.257812 188.628906 143.96875 C 188.222656 145.359375 187.726562 146.722656 187.128906 148.050781 C 186.511719 149.367188 185.808594 150.640625 185.019531 151.863281 C 183.757812 153.53125 182.191406 155.351562 180.425781 156.976562 C 178.664062 158.605469 176.6875 159.992188 174.84375 161.003906 C 175.191406 160.78125 175.464844 160.609375 175.679688 160.464844 C 175.886719 160.308594 176.042969 160.195312 176.164062 160.105469 C 176.40625 159.925781 176.496094 159.847656 176.574219 159.785156 C 176.652344 159.714844 176.71875 159.667969 176.890625 159.519531 C 177.066406 159.375 177.351562 159.144531 177.878906 158.730469 C 177.785156 158.796875 177.457031 159.035156 177.007812 159.355469 C 176.894531 159.4375 176.78125 159.527344 176.648438 159.609375 C 176.519531 159.695312 176.386719 159.78125 176.246094 159.871094 C 176.109375 159.960938 175.964844 160.054688 175.820312 160.148438 C 175.675781 160.242188 175.53125 160.34375 175.378906 160.425781 C 175.074219 160.601562 174.773438 160.78125 174.484375 160.949219 C 174.34375 161.035156 174.195312 161.109375 174.058594 161.179688 C 173.917969 161.25 173.785156 161.320312 173.664062 161.382812 C 173.414062 161.511719 173.195312 161.625 173.023438 161.714844 C 172.847656 161.792969 172.722656 161.851562 172.660156 161.878906 C 172.433594 161.980469 172.175781 162.09375 171.96875 162.191406 C 171.753906 162.296875 171.527344 162.382812 171.304688 162.472656 C 170.855469 162.648438 170.40625 162.847656 169.9375 162.996094 C 169.46875 163.152344 169.011719 163.328125 168.558594 163.445312 C 168.09375 163.578125 167.617188 163.730469 167.121094 163.832031 C 166.628906 163.941406 166.121094 164.074219 165.597656 164.152344 C 165.335938 164.195312 165.070312 164.242188 164.800781 164.285156 C 164.667969 164.3125 164.527344 164.324219 164.390625 164.339844 C 164.253906 164.355469 164.113281 164.371094 163.972656 164.386719 C 163.691406 164.417969 163.410156 164.453125 163.117188 164.480469 C 162.828125 164.496094 162.535156 164.511719 162.234375 164.527344 C 162.441406 164.507812 162.640625 164.492188 162.832031 164.472656 C 162.929688 164.464844 163.023438 164.457031 163.121094 164.449219 C 163.214844 164.441406 163.304688 164.421875 163.394531 164.410156 C 163.757812 164.359375 164.097656 164.308594 164.414062 164.265625 C 164.496094 164.253906 164.574219 164.242188 164.652344 164.230469 C 164.730469 164.21875 164.804688 164.203125 164.878906 164.1875 C 165.03125 164.160156 165.175781 164.132812 165.320312 164.105469 C 165.609375 164.046875 165.878906 163.996094 166.136719 163.945312 C 166.644531 163.820312 167.105469 163.707031 167.542969 163.601562 C 167.976562 163.472656 168.382812 163.347656 168.789062 163.226562 C 168.851562 163.207031 168.910156 163.1875 168.964844 163.171875 C 169.023438 163.148438 169.078125 163.128906 169.128906 163.109375 C 169.234375 163.070312 169.335938 163.03125 169.433594 162.996094 C 169.625 162.921875 169.800781 162.855469 169.980469 162.785156 C 170.339844 162.660156 170.683594 162.492188 171.144531 162.289062 C 171.046875 162.332031 170.910156 162.386719 170.742188 162.453125 C 170.660156 162.488281 170.566406 162.523438 170.472656 162.5625 C 170.375 162.601562 170.273438 162.640625 170.160156 162.675781 C 169.941406 162.75 169.703125 162.832031 169.453125 162.917969 C 169.207031 163 168.949219 163.097656 168.683594 163.164062 C 168.421875 163.238281 168.160156 163.3125 167.90625 163.386719 C 167.78125 163.421875 167.65625 163.457031 167.539062 163.492188 C 167.417969 163.519531 167.300781 163.546875 167.1875 163.570312 C 166.738281 163.675781 166.367188 163.761719 166.164062 163.8125 C 164.605469 164.136719 163.015625 164.34375 161.417969 164.421875 C 161.019531 164.433594 160.621094 164.445312 160.21875 164.460938 L 159.019531 164.433594 C 158.917969 164.429688 158.820312 164.433594 158.71875 164.425781 L 158.421875 164.402344 L 157.820312 164.359375 C 157.621094 164.34375 157.421875 164.339844 157.222656 164.3125 L 156.625 164.238281 L 156.03125 164.164062 C 155.832031 164.140625 155.632812 164.097656 155.4375 164.066406 L 154.546875 163.914062 C 154.449219 163.894531 154.351562 163.871094 154.253906 163.847656 C 153.863281 163.757812 153.472656 163.675781 153.082031 163.582031 L 151.925781 163.257812 C 150.390625 162.792969 148.894531 162.203125 147.464844 161.5 L 146.96875 161.253906 C 146.808594 161.167969 146.640625 161.09375 146.480469 160.996094 C 146.160156 160.816406 145.839844 160.636719 145.519531 160.453125 C 145.203125 160.265625 144.894531 160.0625 144.582031 159.867188 C 144.265625 159.675781 143.96875 159.457031 143.667969 159.246094 L 143.214844 158.929688 C 143.0625 158.824219 142.921875 158.703125 142.773438 158.59375 L 142.335938 158.253906 L 142.121094 158.082031 L 142.011719 158 L 141.90625 157.910156 C 141.628906 157.667969 141.347656 157.429688 141.070312 157.1875 C 140.925781 157.074219 140.800781 156.941406 140.664062 156.816406 L 140.265625 156.4375 C 140.140625 156.3125 140.003906 156.195312 139.882812 156.066406 L 139.511719 155.679688 C 139.390625 155.550781 139.265625 155.421875 139.144531 155.292969 C 139.085938 155.226562 139.019531 155.167969 138.960938 155.097656 L 138.789062 154.898438 C 138.761719 154.863281 138.546875 154.621094 138.175781 154.195312 C 138.078125 154.09375 137.984375 153.96875 137.875 153.835938 C 137.769531 153.699219 137.65625 153.554688 137.53125 153.398438 C 137.40625 153.242188 137.265625 153.078125 137.132812 152.894531 C 137 152.707031 136.859375 152.511719 136.710938 152.304688 C 136.113281 151.484375 135.460938 150.445312 134.789062 149.21875 C 134.628906 148.910156 134.464844 148.589844 134.292969 148.257812 C 134.132812 147.925781 133.980469 147.574219 133.816406 147.222656 C 133.644531 146.871094 133.511719 146.492188 133.355469 146.113281 C 133.28125 145.921875 133.203125 145.730469 133.125 145.535156 C 133.058594 145.335938 132.992188 145.136719 132.921875 144.933594 C 132.367188 143.320312 131.910156 141.515625 131.632812 139.582031 C 131.359375 137.660156 131.28125 135.609375 131.457031 133.503906 C 131.628906 131.398438 132.050781 129.238281 132.726562 127.117188 C 133.417969 125.003906 134.359375 122.929688 135.515625 120.980469 C 135.652344 120.730469 135.8125 120.496094 135.964844 120.257812 L 136.421875 119.542969 L 136.914062 118.851562 C 137.078125 118.621094 137.234375 118.386719 137.414062 118.167969 C 137.765625 117.726562 138.097656 117.269531 138.472656 116.851562 C 138.65625 116.636719 138.835938 116.425781 139.019531 116.210938 C 139.210938 116.007812 139.402344 115.804688 139.589844 115.601562 C 140.347656 114.785156 141.164062 114.039062 141.984375 113.324219 C 142.191406 113.144531 142.40625 112.980469 142.617188 112.808594 L 142.933594 112.554688 C 143.035156 112.472656 143.140625 112.382812 143.25 112.308594 C 143.464844 112.148438 143.683594 111.992188 143.898438 111.835938 C 144.003906 111.757812 144.109375 111.679688 144.21875 111.597656 C 144.324219 111.519531 144.4375 111.453125 144.546875 111.378906 C 146.292969 110.195312 148.101562 109.246094 149.878906 108.53125 C 151.65625 107.8125 153.402344 107.328125 155.035156 107.03125 C 155.238281 106.992188 155.441406 106.957031 155.640625 106.917969 C 155.742188 106.898438 155.84375 106.886719 155.945312 106.875 C 156.042969 106.859375 156.144531 106.847656 156.246094 106.835938 C 156.445312 106.808594 156.640625 106.785156 156.835938 106.757812 C 157.03125 106.734375 157.222656 106.707031 157.414062 106.695312 C 157.796875 106.664062 158.167969 106.636719 158.527344 106.605469 C 158.890625 106.589844 159.242188 106.582031 159.582031 106.570312 C 159.753906 106.566406 159.921875 106.554688 160.085938 106.558594 C 160.25 106.5625 160.410156 106.566406 160.570312 106.570312 C 160.890625 106.578125 161.195312 106.574219 161.488281 106.589844 C 161.785156 106.609375 162.066406 106.628906 162.335938 106.644531 C 162.46875 106.65625 162.601562 106.664062 162.730469 106.671875 C 162.859375 106.683594 162.980469 106.699219 163.105469 106.714844 C 163.347656 106.742188 163.574219 106.769531 163.792969 106.792969 C 163.898438 106.804688 164.003906 106.816406 164.105469 106.828125 C 164.207031 106.84375 164.304688 106.859375 164.398438 106.875 C 164.773438 106.9375 165.089844 106.988281 165.347656 107.03125 C 165.605469 107.074219 165.800781 107.125 165.933594 107.152344 C 166.066406 107.179688 166.132812 107.195312 166.132812 107.195312 C 166.328125 107.230469 166.519531 107.265625 166.710938 107.304688 C 166.902344 107.339844 167.089844 107.390625 167.277344 107.429688 C 167.464844 107.46875 167.652344 107.507812 167.835938 107.546875 C 167.929688 107.566406 168.023438 107.585938 168.113281 107.605469 C 168.207031 107.625 168.296875 107.648438 168.386719 107.671875 C 168.75 107.757812 169.109375 107.835938 169.460938 107.914062 C 169.808594 108.003906 170.152344 108.089844 170.488281 108.167969 C 170.574219 108.183594 170.660156 108.203125 170.742188 108.222656 C 170.824219 108.246094 170.90625 108.265625 170.988281 108.289062 C 171.152344 108.332031 171.316406 108.371094 171.472656 108.410156 C 171.796875 108.492188 172.113281 108.558594 172.414062 108.640625 C 172.714844 108.71875 173.011719 108.792969 173.304688 108.855469 C 173.59375 108.917969 173.863281 108.996094 174.132812 109.050781 C 174.402344 109.113281 174.664062 109.160156 174.914062 109.210938 C 175.15625 109.261719 175.394531 109.308594 175.621094 109.34375 C 175.851562 109.378906 176.066406 109.40625 176.273438 109.421875 C 176.476562 109.441406 176.667969 109.457031 176.847656 109.460938 C 177.566406 109.476562 178.09375 109.320312 178.34375 108.960938 C 178.597656 108.585938 178.53125 108.027344 178.160156 107.3125 C 178.066406 107.136719 177.957031 106.945312 177.824219 106.757812 C 177.6875 106.570312 177.535156 106.371094 177.359375 106.167969 C 177.1875 105.964844 177 105.753906 176.789062 105.539062 C 176.574219 105.335938 176.34375 105.121094 176.09375 104.90625 C 175.601562 104.460938 175.011719 104.054688 174.371094 103.617188 C 174.046875 103.40625 173.699219 103.207031 173.34375 103.003906 C 173.164062 102.902344 172.980469 102.792969 172.792969 102.699219 C 172.601562 102.605469 172.410156 102.511719 172.214844 102.417969 C 170.644531 101.664062 168.820312 101.019531 166.835938 100.648438 L 166.804688 100.644531 C 166.777344 100.632812 166.417969 100.570312 165.757812 100.464844 C 165.429688 100.414062 165.027344 100.335938 164.554688 100.289062 C 164.316406 100.261719 164.0625 100.230469 163.792969 100.199219 C 163.65625 100.183594 163.515625 100.167969 163.371094 100.152344 C 163.226562 100.140625 163.078125 100.132812 162.925781 100.121094 C 162.316406 100.082031 161.644531 100.023438 160.910156 100.023438 C 160.726562 100.019531 160.539062 100.015625 160.347656 100.011719 C 160.15625 100.011719 159.960938 100.003906 159.765625 100.011719 C 159.371094 100.023438 158.960938 100.035156 158.535156 100.050781 C 156.84375 100.140625 154.957031 100.335938 152.894531 100.773438 C 150.839844 101.207031 148.664062 101.890625 146.472656 102.855469 C 144.277344 103.820312 142.074219 105.070312 139.96875 106.601562 C 139.707031 106.796875 139.441406 106.988281 139.175781 107.183594 C 138.921875 107.390625 138.664062 107.59375 138.40625 107.804688 C 138.277344 107.90625 138.148438 108.011719 138.019531 108.113281 L 137.828125 108.273438 L 137.640625 108.4375 C 137.390625 108.65625 137.140625 108.878906 136.890625 109.101562 C 136.765625 109.214844 136.636719 109.324219 136.515625 109.4375 L 136.152344 109.789062 C 135.910156 110.023438 135.667969 110.261719 135.425781 110.496094 C 135.1875 110.734375 134.960938 110.988281 134.726562 111.234375 L 134.375 111.609375 C 134.257812 111.734375 134.140625 111.855469 134.03125 111.988281 C 132.222656 114.042969 130.601562 116.328125 129.25 118.773438 C 127.914062 121.230469 126.847656 123.84375 126.097656 126.523438 L 126.027344 126.773438 L 125.964844 127.023438 L 125.839844 127.53125 C 125.761719 127.867188 125.675781 128.203125 125.601562 128.539062 C 125.535156 128.878906 125.46875 129.21875 125.40625 129.554688 C 125.34375 129.894531 125.273438 130.230469 125.234375 130.570312 C 125.140625 131.25 125.03125 131.925781 124.988281 132.601562 C 124.957031 132.9375 124.929688 133.277344 124.902344 133.613281 C 124.882812 133.949219 124.875 134.285156 124.859375 134.617188 C 124.855469 134.785156 124.851562 134.953125 124.84375 135.121094 C 124.839844 135.285156 124.828125 135.453125 124.835938 135.617188 C 124.84375 135.949219 124.847656 136.28125 124.855469 136.613281 C 124.851562 137.269531 124.917969 137.921875 124.960938 138.570312 C 124.972656 138.730469 124.984375 138.890625 124.996094 139.050781 C 125.015625 139.210938 125.035156 139.371094 125.054688 139.53125 C 125.09375 139.847656 125.132812 140.164062 125.175781 140.480469 C 125.195312 140.636719 125.210938 140.796875 125.238281 140.949219 C 125.265625 141.105469 125.292969 141.257812 125.320312 141.410156 C 125.375 141.71875 125.429688 142.023438 125.484375 142.324219 C 125.957031 144.742188 126.660156 146.996094 127.492188 149.015625 C 128.320312 151.035156 129.28125 152.824219 130.238281 154.367188 C 130.488281 154.746094 130.726562 155.117188 130.960938 155.476562 C 131.203125 155.828125 131.449219 156.160156 131.683594 156.484375 C 131.800781 156.648438 131.914062 156.808594 132.027344 156.964844 C 132.148438 157.113281 132.265625 157.261719 132.382812 157.40625 C 132.613281 157.699219 132.835938 157.976562 133.046875 158.242188 C 133.496094 158.757812 133.902344 159.226562 134.273438 159.636719 C 134.660156 160.03125 134.996094 160.382812 135.285156 160.679688 C 135.425781 160.832031 135.570312 160.953125 135.691406 161.074219 C 135.816406 161.191406 135.925781 161.292969 136.023438 161.382812 C 136.214844 161.566406 136.351562 161.691406 136.425781 161.765625 C 139.375 164.445312 142.792969 166.648438 146.488281 168.199219 C 148.335938 168.972656 150.25 169.585938 152.195312 170.039062 C 154.144531 170.488281 156.125 170.785156 158.109375 170.890625 C 162.8125 171.164062 167.59375 170.484375 172.039062 168.863281 C 170.691406 169.277344 170.152344 169.375 169.863281 169.441406 C 169.574219 169.5 169.519531 169.492188 169.113281 169.542969 C 169.523438 169.421875 169.929688 169.304688 170.328125 169.191406 C 170.523438 169.132812 170.726562 169.082031 170.917969 169.015625 C 171.113281 168.949219 171.304688 168.882812 171.496094 168.816406 C 171.6875 168.75 171.878906 168.6875 172.070312 168.621094 C 172.257812 168.554688 172.449219 168.496094 172.632812 168.417969 C 173 168.273438 173.367188 168.125 173.730469 167.980469 C 173.878906 167.917969 174.050781 167.859375 174.230469 167.777344 C 174.410156 167.695312 174.601562 167.609375 174.800781 167.519531 C 175 167.433594 175.203125 167.339844 175.40625 167.246094 C 175.507812 167.203125 175.609375 167.15625 175.710938 167.109375 C 175.808594 167.058594 175.90625 167.007812 176.003906 166.960938 C 176.398438 166.757812 176.796875 166.554688 177.195312 166.351562 C 177.585938 166.128906 177.972656 165.90625 178.359375 165.679688 C 178.742188 165.472656 179.101562 165.222656 179.46875 164.992188 L 180.019531 164.632812 L 180.15625 164.546875 L 180.289062 164.449219 L 180.554688 164.261719 C 180.910156 164.003906 181.269531 163.753906 181.617188 163.492188 L 182.644531 162.671875 C 183.992188 161.554688 185.269531 160.347656 186.441406 159.042969 C 185.023438 160.59375 183.464844 161.976562 181.808594 163.246094 C 180.074219 164.578125 178.214844 165.746094 176.265625 166.726562 C 174.398438 167.667969 172.449219 168.441406 170.453125 169.03125 C 169.949219 169.171875 169.449219 169.320312 168.945312 169.445312 L 167.421875 169.789062 C 167.039062 169.863281 166.675781 169.949219 166.285156 170.023438 L 165.535156 170.15625 L 164.777344 170.253906 C 164.488281 170.292969 164.199219 170.332031 163.90625 170.367188 C 163.617188 170.402344 163.320312 170.417969 163.027344 170.445312 C 162.734375 170.46875 162.4375 170.488281 162.144531 170.511719 C 161.851562 170.535156 161.554688 170.535156 161.261719 170.546875 C 158.851562 170.628906 156.410156 170.460938 154.011719 170.035156 C 151.613281 169.609375 149.261719 168.925781 147.019531 168.015625 C 142.410156 166.140625 138.234375 163.203125 134.878906 159.539062 C 137.941406 162.800781 141.644531 165.460938 145.710938 167.320312 C 149.777344 169.183594 154.210938 170.246094 158.675781 170.425781 C 159.222656 170.4375 159.769531 170.453125 160.3125 170.457031 L 161.953125 170.40625 C 162.605469 170.363281 163.09375 170.324219 163.582031 170.285156 C 163.644531 170.28125 163.707031 170.273438 163.765625 170.269531 C 163.828125 170.261719 163.890625 170.253906 163.949219 170.246094 C 164.074219 170.230469 164.203125 170.214844 164.332031 170.195312 C 164.597656 170.160156 164.878906 170.121094 165.203125 170.078125 C 165.339844 170.0625 165.472656 170.046875 165.609375 170.023438 L 166.011719 169.953125 L 166.8125 169.804688 C 167.351562 169.71875 167.878906 169.578125 168.410156 169.457031 C 168.570312 169.417969 168.707031 169.386719 168.835938 169.355469 C 168.964844 169.328125 169.085938 169.300781 169.203125 169.261719 C 169.4375 169.195312 169.675781 169.128906 169.988281 169.035156 C 170.304688 168.945312 170.460938 168.902344 170.773438 168.804688 C 171.066406 168.707031 171.210938 168.65625 171.507812 168.554688 C 171.746094 168.476562 171.988281 168.390625 172.234375 168.308594 C 172.359375 168.265625 172.480469 168.21875 172.597656 168.167969 C 172.71875 168.121094 172.839844 168.074219 172.957031 168.027344 C 173.195312 167.929688 173.429688 167.835938 173.652344 167.746094 C 173.765625 167.703125 173.875 167.660156 173.980469 167.617188 C 174.085938 167.570312 174.191406 167.527344 174.289062 167.480469 C 178.1875 165.835938 181.761719 163.414062 184.808594 160.453125 L 184.027344 161.148438 C 183.757812 161.371094 183.484375 161.589844 183.214844 161.808594 C 182.683594 162.253906 182.113281 162.652344 181.554688 163.0625 L 182.449219 162.339844 C 182.601562 162.222656 182.742188 162.09375 182.886719 161.964844 L 183.316406 161.582031 C 183.902344 161.082031 184.4375 160.53125 184.984375 159.996094 C 184.40625 160.539062 183.839844 161.09375 183.230469 161.597656 C 182.636719 162.125 182.003906 162.601562 181.378906 163.085938 C 181.0625 163.324219 180.734375 163.546875 180.410156 163.773438 L 179.925781 164.117188 C 179.761719 164.226562 179.59375 164.328125 179.425781 164.433594 L 178.421875 165.066406 L 177.390625 165.648438 C 177.21875 165.742188 177.050781 165.847656 176.871094 165.933594 L 176.34375 166.199219 L 175.8125 166.464844 C 175.636719 166.550781 175.464844 166.644531 175.28125 166.722656 L 174.199219 167.199219 L 173.929688 167.316406 C 173.839844 167.355469 173.746094 167.390625 173.652344 167.425781 L 172.550781 167.847656 L 172.273438 167.953125 L 171.992188 168.042969 L 170.871094 168.410156 C 170.777344 168.4375 170.683594 168.472656 170.589844 168.496094 L 170.304688 168.574219 L 169.738281 168.730469 C 169.355469 168.828125 168.980469 168.941406 168.59375 169.019531 C 172.765625 167.992188 176.746094 166.179688 180.261719 163.6875 L 181.164062 163.035156 L 182.035156 162.34375 L 182.472656 161.996094 L 182.890625 161.628906 L 183.730469 160.890625 C 184.75 159.917969 185.757812 158.941406 186.65625 157.863281 C 186.53125 158.007812 186.367188 158.160156 186.234375 158.304688 C 186.070312 158.492188 185.890625 158.671875 185.710938 158.847656 L 185.171875 159.390625 L 184.898438 159.660156 C 184.808594 159.75 184.710938 159.832031 184.617188 159.917969 L 183.816406 160.6875 C 183.6875 160.820312 183.546875 160.941406 183.40625 161.0625 L 182.988281 161.425781 C 182.4375 161.921875 181.847656 162.371094 181.265625 162.828125 C 181.125 162.945312 180.972656 163.050781 180.820312 163.160156 L 180.371094 163.480469 C 180.066406 163.691406 179.773438 163.914062 179.457031 164.109375 C 179.148438 164.308594 178.835938 164.507812 178.527344 164.703125 C 178.449219 164.753906 178.371094 164.804688 178.292969 164.851562 L 177.578125 165.261719 C 177.414062 165.355469 177.25 165.449219 177.082031 165.542969 C 177 165.589844 176.917969 165.640625 176.832031 165.683594 L 176.578125 165.816406 C 176.234375 165.988281 175.890625 166.164062 175.546875 166.335938 C 175.386719 166.421875 175.21875 166.496094 175.050781 166.570312 C 174.882812 166.644531 174.714844 166.722656 174.546875 166.796875 C 174.375 166.871094 174.207031 166.949219 174.035156 167.023438 C 173.949219 167.0625 173.863281 167.101562 173.777344 167.136719 L 173.511719 167.238281 C 173.167969 167.378906 172.816406 167.515625 172.460938 167.660156 C 172.371094 167.695312 172.28125 167.730469 172.195312 167.765625 C 172.101562 167.792969 172.011719 167.828125 171.917969 167.859375 C 171.734375 167.921875 171.550781 167.984375 171.363281 168.046875 C 170.617188 168.316406 169.820312 168.527344 168.980469 168.769531 C 169.457031 168.617188 169.929688 168.46875 170.394531 168.320312 L 170.570312 168.261719 C 170.625 168.242188 170.679688 168.222656 170.738281 168.199219 C 170.851562 168.160156 170.964844 168.117188 171.074219 168.074219 C 171.296875 167.992188 171.511719 167.914062 171.726562 167.835938 C 172.160156 167.683594 172.585938 167.492188 173.003906 167.3125 C 173.214844 167.222656 173.421875 167.136719 173.621094 167.050781 C 173.820312 166.96875 174.007812 166.871094 174.191406 166.789062 C 174.40625 166.6875 174.617188 166.589844 174.832031 166.488281 C 175.042969 166.386719 175.261719 166.292969 175.464844 166.175781 C 175.882812 165.957031 176.304688 165.734375 176.71875 165.515625 C 177.128906 165.273438 177.535156 165.035156 177.9375 164.796875 C 178.039062 164.734375 178.140625 164.679688 178.242188 164.617188 L 178.535156 164.421875 C 178.730469 164.296875 178.921875 164.167969 179.117188 164.042969 C 180.652344 163.019531 182.125 161.867188 183.5 160.613281 C 184.863281 159.347656 186.121094 157.972656 187.246094 156.53125 C 188.402344 155.050781 189.398438 153.5 190.234375 151.863281 C 191.070312 150.230469 191.769531 148.527344 192.320312 146.734375 C 192.265625 146.90625 192.191406 147.070312 192.128906 147.234375 C 192.0625 147.398438 191.996094 147.5625 191.929688 147.726562 C 191.792969 148.058594 191.667969 148.398438 191.5 148.746094 C 191.339844 149.097656 191.167969 149.46875 190.980469 149.875 C 190.777344 150.273438 190.550781 150.707031 190.296875 151.191406 C 192.148438 147.457031 193.269531 143.386719 193.601562 139.277344 L 193.652344 138.742188 L 193.675781 138.207031 L 193.71875 137.132812 C 193.722656 136.773438 193.714844 136.414062 193.714844 136.058594 C 193.710938 135.699219 193.710938 135.34375 193.683594 134.984375 C 193.664062 134.636719 193.644531 134.285156 193.625 133.933594 L 193.609375 133.667969 L 193.585938 133.40625 L 193.527344 132.878906 C 193.511719 132.703125 193.492188 132.527344 193.472656 132.351562 C 193.453125 132.175781 193.4375 132 193.40625 131.828125 C 193.351562 131.484375 193.292969 131.140625 193.230469 130.800781 L 193.363281 131.921875 C 193.398438 132.292969 193.421875 132.667969 193.453125 133.042969 L 193.5 133.605469 C 193.511719 133.792969 193.511719 133.980469 193.519531 134.167969 L 193.558594 135.296875 C 193.5625 135.671875 193.554688 136.046875 193.550781 136.421875 L 193.546875 136.988281 C 193.539062 137.175781 193.527344 137.363281 193.515625 137.550781 L 193.449219 138.675781 C 193.410156 139.050781 193.371094 139.425781 193.332031 139.796875 C 193.132812 141.453125 192.828125 143.097656 192.351562 144.695312 C 192.296875 144.894531 192.25 145.097656 192.179688 145.296875 L 191.984375 145.886719 C 191.847656 146.28125 191.730469 146.679688 191.570312 147.066406 C 191.417969 147.453125 191.265625 147.84375 191.113281 148.230469 C 190.941406 148.609375 190.773438 148.992188 190.601562 149.371094 L 191.042969 148.335938 C 191.183594 147.988281 191.304688 147.636719 191.4375 147.285156 L 191.632812 146.757812 C 191.695312 146.578125 191.75 146.398438 191.804688 146.222656 L 192.144531 145.148438 L 192.429688 144.0625 C 192.476562 143.878906 192.523438 143.699219 192.566406 143.519531 L 192.683594 142.96875 C 192.757812 142.601562 192.839844 142.238281 192.90625 141.871094 C 192.964844 141.503906 193.019531 141.132812 193.078125 140.765625 C 193.097656 140.628906 193.121094 140.492188 193.140625 140.355469 C 193.15625 140.222656 193.171875 140.089844 193.183594 139.957031 C 193.210938 139.695312 193.238281 139.441406 193.261719 139.199219 C 193.320312 138.707031 193.335938 138.246094 193.359375 137.816406 C 193.367188 137.601562 193.378906 137.390625 193.386719 137.1875 C 193.394531 137.085938 193.398438 136.988281 193.394531 136.886719 C 193.394531 136.789062 193.394531 136.691406 193.394531 136.597656 C 193.394531 136.214844 193.390625 135.855469 193.390625 135.515625 C 193.382812 135.175781 193.355469 134.855469 193.339844 134.546875 C 193.320312 134.238281 193.304688 133.941406 193.285156 133.65625 C 193.21875 133.082031 193.15625 132.535156 193.085938 131.980469 C 192.988281 131.433594 192.894531 130.863281 192.78125 130.253906 C 192.65625 129.648438 192.507812 129 192.324219 128.300781 C 192.433594 128.796875 192.53125 129.308594 192.621094 129.8125 C 192.714844 130.320312 192.78125 130.824219 192.847656 131.316406 C 192.882812 131.5625 192.917969 131.808594 192.949219 132.050781 C 192.972656 132.292969 192.996094 132.535156 193.015625 132.773438 C 193.058594 133.25 193.113281 133.71875 193.121094 134.179688 C 193.242188 136.515625 193.101562 138.875 192.710938 141.195312 C 193.308594 137.144531 193.148438 133 192.246094 129.050781 C 192.125 128.515625 191.988281 127.988281 191.84375 127.460938 C 191.824219 127.390625 191.742188 127.085938 191.65625 126.808594 C 191.566406 126.53125 191.484375 126.277344 191.476562 126.296875 C 191.457031 126.34375 191.53125 126.621094 191.613281 126.90625 C 191.691406 127.191406 191.785156 127.492188 191.804688 127.585938 C 192.042969 128.570312 192.25 129.5625 192.390625 130.566406 L 192.589844 132.070312 L 192.707031 133.585938 C 192.71875 133.710938 192.722656 133.835938 192.726562 133.964844 L 192.738281 134.34375 L 192.757812 135.101562 C 192.769531 135.355469 192.761719 135.609375 192.757812 135.863281 L 192.738281 136.621094 C 192.738281 136.996094 192.703125 137.371094 192.679688 137.742188 L 192.636719 138.304688 L 192.617188 138.585938 C 192.613281 138.679688 192.597656 138.769531 192.585938 138.863281 L 192.449219 139.980469 C 192.4375 140.074219 192.429688 140.164062 192.414062 140.257812 L 192.273438 141.089844 C 192.574219 139.171875 192.703125 137.230469 192.664062 135.292969 C 192.628906 133.355469 192.394531 131.433594 192.054688 129.53125 C 192.023438 129.355469 191.988281 129.183594 191.953125 129.007812 C 191.914062 128.832031 191.882812 128.65625 191.839844 128.484375 C 191.992188 129.363281 192.109375 130.140625 192.175781 130.84375 C 192.210938 131.195312 192.246094 131.527344 192.277344 131.839844 C 192.285156 131.917969 192.292969 131.996094 192.300781 132.074219 C 192.308594 132.148438 192.308594 132.226562 192.3125 132.300781 C 192.320312 132.449219 192.328125 132.59375 192.335938 132.734375 C 192.351562 133.019531 192.367188 133.292969 192.378906 133.558594 C 192.382812 133.625 192.386719 133.6875 192.390625 133.753906 C 192.390625 133.820312 192.390625 133.886719 192.390625 133.949219 C 192.390625 134.078125 192.390625 134.207031 192.390625 134.332031 C 192.390625 134.84375 192.410156 135.335938 192.371094 135.855469 C 192.40625 135.421875 192.324219 134.882812 192.296875 134.457031 L 192.238281 133.726562 L 192.148438 133.003906 C 192.09375 132.554688 192.046875 132.105469 191.964844 131.65625 C 191.886719 131.207031 191.820312 130.757812 191.734375 130.308594 C 191.359375 128.398438 190.792969 126.535156 190.058594 124.761719 C 189.859375 124.28125 189.644531 123.808594 189.421875 123.34375 C 189.210938 122.898438 188.929688 122.28125 188.679688 121.910156 C 188.742188 122.058594 188.816406 122.214844 188.890625 122.371094 C 188.964844 122.527344 189.035156 122.6875 189.101562 122.84375 " fill-opacity="1" fill-rule="nonzero"/></g><g clip-path="url(#5c5b323639)"><path fill="#199b00" d="M 199.359375 106.867188 C 199.128906 106.914062 198.902344 106.960938 198.675781 107.011719 L 198.332031 107.089844 C 198.21875 107.117188 198.109375 107.152344 197.996094 107.1875 C 197.773438 107.253906 197.550781 107.324219 197.328125 107.394531 C 197.109375 107.46875 196.882812 107.535156 196.667969 107.621094 C 196.453125 107.707031 196.238281 107.796875 196.023438 107.886719 C 195.808594 107.976562 195.597656 108.070312 195.382812 108.164062 C 195.171875 108.261719 194.96875 108.375 194.765625 108.480469 C 194.570312 108.585938 194.375 108.691406 194.183594 108.796875 L 193.894531 108.960938 C 193.796875 109.015625 193.707031 109.078125 193.613281 109.136719 C 193.441406 109.246094 193.253906 109.320312 193.066406 109.40625 C 192.894531 109.484375 192.628906 109.554688 192.484375 109.679688 C 192.742188 109.460938 193.007812 109.25 193.285156 109.042969 C 193.421875 108.9375 193.5625 108.835938 193.703125 108.734375 C 193.847656 108.636719 193.996094 108.546875 194.140625 108.453125 C 194.4375 108.269531 194.734375 108.089844 195.035156 107.910156 C 195.335938 107.734375 195.648438 107.578125 195.953125 107.410156 C 194.257812 108.203125 192.628906 109.089844 191.039062 110.011719 C 190.757812 110.164062 190.488281 110.328125 190.210938 110.488281 C 189.9375 110.644531 189.660156 110.800781 189.382812 110.953125 C 190.898438 109.859375 192.5 108.859375 194.183594 107.972656 L 194.675781 107.71875 C 194.839844 107.632812 194.996094 107.542969 195.167969 107.46875 L 196.171875 107.007812 C 196.320312 106.941406 196.460938 106.859375 196.617188 106.800781 C 196.769531 106.738281 196.925781 106.683594 197.082031 106.65625 C 197.417969 106.597656 197.761719 106.464844 198.09375 106.371094 L 198.03125 106.371094 C 197.816406 106.386719 197.578125 106.445312 197.371094 106.480469 C 197.105469 106.527344 196.839844 106.582031 196.574219 106.644531 C 196.234375 106.730469 195.902344 106.84375 195.570312 106.957031 C 195.238281 107.074219 194.90625 107.1875 194.589844 107.335938 C 194.269531 107.480469 193.949219 107.628906 193.632812 107.773438 L 193.398438 107.886719 C 193.320312 107.925781 193.242188 107.96875 193.164062 108.007812 L 192.703125 108.246094 C 190.773438 109.273438 188.9375 110.4375 187.113281 111.601562 C 187.207031 111.539062 187.300781 111.382812 187.378906 111.300781 C 187.476562 111.203125 187.578125 111.109375 187.679688 111.015625 C 187.9375 110.785156 188.21875 110.570312 188.460938 110.324219 C 188.535156 110.25 188.609375 110.179688 188.6875 110.105469 C 188.765625 110.039062 188.847656 109.972656 188.933594 109.910156 C 189.101562 109.78125 189.277344 109.65625 189.453125 109.535156 C 189.8125 109.296875 190.179688 109.066406 190.539062 108.851562 L 191.464844 108.289062 L 191.617188 108.191406 L 191.777344 108.105469 L 193.050781 107.402344 C 193.863281 106.992188 194.640625 106.53125 195.480469 106.140625 L 195.9375 105.910156 L 196.167969 105.789062 L 196.402344 105.679688 C 194.519531 106.28125 192.707031 107.023438 190.953125 107.867188 C 190.515625 108.085938 190.074219 108.296875 189.644531 108.523438 C 189.246094 108.738281 188.867188 109.015625 188.480469 109.257812 C 188.273438 109.382812 188.074219 109.523438 187.871094 109.65625 L 187.265625 110.0625 C 187.066406 110.199219 186.859375 110.328125 186.664062 110.46875 L 186.078125 110.890625 L 185.261719 111.472656 L 184.46875 112.070312 C 184.203125 112.273438 183.933594 112.464844 183.675781 112.671875 L 182.894531 113.285156 C 182.230469 113.699219 181.769531 114.082031 181.433594 114.214844 C 183.390625 112.675781 185.292969 111.019531 187.382812 109.597656 C 187.589844 109.457031 187.792969 109.316406 188 109.175781 C 188.203125 109.039062 188.417969 108.910156 188.628906 108.773438 L 189.261719 108.371094 L 189.578125 108.167969 C 189.683594 108.101562 189.796875 108.039062 189.902344 107.976562 L 191.210938 107.210938 C 191.65625 106.96875 192.101562 106.726562 192.546875 106.484375 C 192.710938 106.390625 192.878906 106.316406 193.050781 106.234375 L 193.554688 105.996094 L 194.28125 105.652344 C 194.441406 105.582031 194.636719 105.523438 194.785156 105.429688 C 194.800781 105.417969 194.820312 105.410156 194.835938 105.398438 C 194.714844 105.425781 194.59375 105.46875 194.46875 105.519531 C 194.347656 105.566406 194.230469 105.617188 194.117188 105.667969 L 193.390625 105.976562 C 193.164062 106.070312 192.941406 106.164062 192.71875 106.261719 C 192.496094 106.363281 192.285156 106.476562 192.066406 106.585938 L 191.421875 106.917969 L 191.101562 107.085938 C 190.996094 107.144531 190.894531 107.207031 190.789062 107.265625 L 189.550781 108 L 188.34375 108.773438 C 188.015625 108.972656 187.703125 109.199219 187.382812 109.414062 C 187.0625 109.628906 186.738281 109.839844 186.425781 110.0625 L 185.488281 110.730469 L 185.015625 111.0625 L 184.558594 111.402344 C 183.558594 111.890625 182.503906 112.605469 181.492188 113.371094 C 181.242188 113.566406 180.992188 113.757812 180.742188 113.953125 C 180.617188 114.050781 180.496094 114.144531 180.371094 114.242188 C 180.25 114.339844 180.132812 114.441406 180.015625 114.539062 C 179.539062 114.929688 179.078125 115.304688 178.648438 115.660156 C 178.789062 115.492188 178.902344 115.363281 178.996094 115.257812 C 179.085938 115.15625 179.152344 115.074219 179.203125 115.011719 C 179.304688 114.886719 179.34375 114.832031 179.371094 114.785156 C 179.429688 114.6875 179.460938 114.617188 179.949219 114.082031 C 179.855469 114.164062 179.292969 114.65625 178.726562 115.152344 C 178.175781 115.65625 177.617188 116.167969 177.511719 116.265625 C 177.410156 116.355469 177.296875 116.449219 177.207031 116.535156 C 177.117188 116.625 177.023438 116.714844 176.933594 116.804688 C 176.570312 117.167969 176.183594 117.546875 175.828125 117.902344 C 175.648438 118.082031 175.460938 118.273438 175.273438 118.464844 C 175.082031 118.65625 174.890625 118.855469 174.6875 119.050781 C 174.585938 119.148438 174.484375 119.25 174.378906 119.351562 C 174.277344 119.453125 174.171875 119.558594 174.066406 119.664062 C 173.855469 119.875 173.632812 120.089844 173.398438 120.304688 C 173.6875 119.976562 173.941406 119.679688 174.164062 119.421875 C 174.390625 119.164062 174.609375 118.941406 174.792969 118.730469 C 175.167969 118.316406 175.476562 117.980469 175.789062 117.648438 C 176.152344 117.238281 176.328125 117.027344 176.683594 116.609375 C 176.519531 116.773438 176.09375 117.183594 175.671875 117.589844 C 175.25 118.003906 174.84375 118.425781 174.6875 118.589844 C 172.335938 121.074219 170.109375 123.707031 168.023438 126.378906 C 167.0625 127.605469 166.117188 128.855469 165.1875 130.097656 C 164.957031 130.398438 164.738281 130.707031 164.515625 131.003906 C 164.496094 131.027344 164.363281 131.214844 164.128906 131.542969 C 164.015625 131.707031 163.871094 131.90625 163.707031 132.140625 C 163.546875 132.375 163.363281 132.640625 163.164062 132.9375 C 162.960938 133.234375 162.738281 133.5625 162.496094 133.914062 C 160.683594 136.578125 159.03125 139.382812 157.339844 142.140625 C 157.164062 142.433594 156.742188 142.4375 156.558594 142.148438 C 156.167969 141.542969 155.585938 140.738281 155.496094 140.585938 C 155.023438 139.804688 154.566406 139.011719 154.125 138.207031 C 153.328125 136.75 152.589844 135.257812 151.890625 133.75 C 151.1875 132.378906 150.144531 131.316406 148.992188 130.691406 C 147.839844 130.070312 146.566406 129.894531 145.429688 130.359375 C 144.261719 130.835938 143.457031 131.910156 143.136719 133.277344 C 142.8125 134.648438 142.988281 136.316406 143.742188 137.917969 L 143.75 137.929688 C 143.753906 137.9375 143.789062 138.011719 143.851562 138.148438 C 145.054688 140.746094 146.359375 143.296875 147.859375 145.734375 C 149.25 147.996094 150.8125 150.367188 152.695312 152.25 C 153.21875 152.769531 153.804688 153.234375 154.464844 153.574219 C 155.945312 154.335938 157.742188 154.398438 159.308594 153.832031 C 162.03125 152.847656 163.464844 150.203125 164.800781 147.8125 C 165.5625 146.445312 166.328125 145.078125 167.089844 143.707031 C 167.472656 143.027344 167.824219 142.316406 168.238281 141.65625 C 168.566406 141.128906 168.992188 140.660156 169.339844 140.132812 C 170.417969 138.484375 171.523438 136.851562 172.691406 135.269531 C 172.722656 135.226562 172.753906 135.1875 172.785156 135.144531 C 174.6875 132.582031 176.636719 130.019531 178.714844 127.660156 C 179.9375 126.253906 181.226562 124.902344 182.5 123.554688 C 181.589844 124.207031 181.800781 124.070312 181.449219 124.175781 C 181.679688 123.925781 181.914062 123.699219 182.144531 123.476562 C 182.375 123.25 182.597656 123.03125 182.820312 122.816406 C 183.007812 122.640625 183.300781 122.386719 183.554688 122.164062 C 183.816406 121.933594 184.082031 121.699219 184.347656 121.46875 C 185.386719 120.585938 186.433594 119.703125 187.5 118.878906 C 186.835938 119.335938 186.183594 119.824219 185.539062 120.320312 C 184.882812 120.871094 184.214844 121.40625 183.570312 121.984375 C 182.945312 122.519531 182.339844 123.09375 181.730469 123.652344 C 181.425781 123.9375 181.128906 124.230469 180.828125 124.519531 C 180.714844 124.628906 180.640625 124.761719 180.527344 124.875 C 180.386719 125.019531 180.246094 125.171875 180.109375 125.320312 C 179.792969 125.664062 179.46875 126.019531 179.148438 126.363281 C 177.867188 127.820312 176.601562 129.339844 175.378906 130.867188 C 174.125 132.4375 172.863281 134.023438 171.585938 135.605469 C 172.667969 134.132812 173.757812 132.667969 174.886719 131.242188 L 175.304688 130.703125 C 175.445312 130.523438 175.589844 130.347656 175.730469 130.171875 L 176.585938 129.113281 C 177.171875 128.421875 177.742188 127.714844 178.339844 127.042969 L 178.996094 126.292969 L 179.21875 126.046875 C 179.578125 125.664062 179.757812 125.46875 180.109375 125.074219 C 180.414062 124.757812 180.714844 124.441406 181.019531 124.125 C 181.203125 123.9375 181.292969 123.84375 181.476562 123.65625 C 181.570312 123.5625 181.617188 123.515625 181.710938 123.421875 C 181.796875 123.335938 181.84375 123.292969 181.933594 123.207031 C 182.222656 122.929688 182.53125 122.609375 182.792969 122.378906 C 184.066406 121.273438 185.347656 120.183594 186.667969 119.171875 L 185.238281 120.023438 C 185.699219 119.628906 186.160156 119.230469 186.625 118.839844 C 184.585938 120.304688 182.617188 121.933594 180.714844 123.667969 C 181.964844 122.433594 183.238281 121.234375 184.566406 120.113281 C 185.019531 119.714844 185.488281 119.347656 185.949219 118.972656 C 186.382812 118.605469 186.851562 118.300781 187.300781 117.964844 C 187.238281 118.007812 187.144531 118.03125 187.078125 118.074219 L 186.816406 118.230469 L 186.289062 118.550781 C 185.820312 118.921875 185.351562 119.289062 184.882812 119.660156 C 184.421875 120.046875 183.953125 120.421875 183.496094 120.808594 C 183.265625 121.007812 183.027344 121.214844 182.789062 121.421875 C 182.566406 121.617188 182.328125 121.808594 182.101562 122.019531 C 181.878906 122.230469 181.65625 122.449219 181.421875 122.675781 C 181.1875 122.898438 180.941406 123.132812 180.691406 123.390625 C 180.945312 123.066406 181.214844 122.753906 181.460938 122.472656 C 181.710938 122.1875 181.964844 121.878906 182.199219 121.644531 C 182.476562 121.375 182.753906 121.101562 183.035156 120.832031 C 183.175781 120.695312 183.3125 120.558594 183.457031 120.429688 C 183.601562 120.300781 183.746094 120.171875 183.886719 120.046875 C 184.171875 119.796875 184.457031 119.542969 184.746094 119.296875 C 185.042969 119.058594 185.339844 118.816406 185.636719 118.578125 C 185.785156 118.457031 185.929688 118.335938 186.082031 118.222656 C 186.230469 118.105469 186.382812 117.992188 186.53125 117.878906 C 186.828125 117.648438 187.125 117.421875 187.421875 117.195312 C 187.730469 116.96875 188.027344 116.742188 188.320312 116.507812 C 188.46875 116.394531 188.609375 116.269531 188.757812 116.160156 C 188.90625 116.042969 189.050781 115.929688 189.195312 115.8125 C 189.484375 115.582031 189.769531 115.335938 190.058594 115.097656 C 190.347656 114.863281 190.640625 114.617188 190.929688 114.367188 C 190.675781 114.511719 190.433594 114.648438 190.160156 114.800781 C 190.023438 114.878906 189.875 114.957031 189.71875 115.050781 C 189.558594 115.144531 189.386719 115.25 189.195312 115.363281 C 190.53125 114.292969 191.902344 113.257812 193.335938 112.332031 C 193.582031 112.160156 193.835938 112.007812 194.089844 111.851562 L 194.851562 111.382812 C 195.101562 111.238281 195.367188 111.105469 195.625 110.964844 C 195.753906 110.898438 195.882812 110.828125 196.011719 110.753906 C 196.140625 110.679688 196.265625 110.605469 196.390625 110.535156 C 196.242188 110.582031 196.097656 110.640625 195.949219 110.699219 L 195.515625 110.878906 L 195.082031 111.066406 C 194.9375 111.128906 194.796875 111.195312 194.65625 111.269531 C 194.378906 111.414062 194.097656 111.5625 193.820312 111.710938 C 193.683594 111.789062 193.542969 111.859375 193.40625 111.9375 L 193 112.183594 C 192.703125 112.363281 192.398438 112.535156 192.09375 112.710938 C 191.796875 112.894531 191.5 113.074219 191.195312 113.25 L 190.742188 113.511719 L 190.296875 113.789062 C 189.996094 113.972656 189.695312 114.15625 189.394531 114.335938 L 190.175781 113.792969 C 190.4375 113.613281 190.691406 113.425781 190.960938 113.257812 C 191.492188 112.917969 192.015625 112.554688 192.558594 112.238281 C 192.761719 112.113281 192.949219 111.996094 193.128906 111.886719 C 193.214844 111.832031 193.300781 111.78125 193.386719 111.726562 C 193.46875 111.679688 193.550781 111.632812 193.632812 111.585938 C 193.949219 111.40625 194.226562 111.242188 194.476562 111.09375 C 194.722656 110.941406 194.949219 110.820312 195.164062 110.699219 C 195.378906 110.574219 195.582031 110.457031 195.789062 110.332031 C 195.890625 110.269531 195.996094 110.203125 196.105469 110.144531 C 196.214844 110.082031 196.328125 110.019531 196.445312 109.957031 C 196.679688 109.828125 196.933594 109.691406 197.214844 109.546875 C 196.800781 109.695312 196.378906 109.859375 195.984375 110.023438 C 195.59375 110.207031 195.21875 110.382812 194.859375 110.550781 C 194.628906 110.65625 194.410156 110.777344 194.183594 110.894531 L 193.511719 111.242188 C 193.402344 111.300781 193.285156 111.355469 193.175781 111.417969 L 192.847656 111.605469 L 192.183594 111.980469 C 193.652344 110.984375 195.195312 110.101562 196.8125 109.351562 L 197.304688 109.117188 L 197.46875 109.046875 C 197.53125 109.023438 197.984375 108.84375 197.960938 108.816406 C 197.898438 108.742188 197.472656 108.949219 197.394531 108.972656 C 197.285156 109.003906 197.179688 109.042969 197.074219 109.082031 L 196.132812 109.433594 L 195.816406 109.550781 L 195.507812 109.683594 L 194.890625 109.945312 C 194.683594 110.035156 194.476562 110.117188 194.273438 110.214844 L 193.667969 110.507812 L 193.21875 110.722656 C 193.066406 110.792969 192.917969 110.867188 192.773438 110.945312 L 191.894531 111.417969 C 193.355469 110.5 194.886719 109.683594 196.5 109.050781 L 196.945312 108.878906 C 196.558594 108.972656 196.210938 109.058594 195.902344 109.144531 C 195.828125 109.164062 195.75 109.183594 195.679688 109.203125 C 195.605469 109.226562 195.539062 109.25 195.46875 109.273438 C 195.335938 109.316406 195.207031 109.359375 195.085938 109.402344 C 194.59375 109.566406 194.183594 109.691406 193.746094 109.871094 C 193.929688 109.804688 194.117188 109.621094 194.289062 109.523438 L 194.867188 109.175781 C 195.046875 109.070312 195.230469 108.964844 195.414062 108.859375 C 195.597656 108.753906 195.789062 108.667969 195.976562 108.570312 L 196.585938 108.265625 L 196.890625 108.109375 C 196.992188 108.058594 197.097656 108.015625 197.199219 107.964844 C 197.613281 107.773438 198.023438 107.574219 198.4375 107.375 L 199.121094 107.074219 C 199.339844 106.976562 199.648438 106.886719 199.835938 106.738281 C 199.679688 106.765625 199.515625 106.832031 199.359375 106.867188 " fill-opacity="1" fill-rule="nonzero"/></g><path stroke-linecap="butt" transform="matrix(0.980649, 0, 0, 0.980649, 0.0000045, 0)" fill-opacity="1" fill="#00d300" fill-rule="nonzero" stroke-linejoin="miter" d="M 191.223902 381.945912 C 85.888632 381.945912 0.501895 296.555193 0.501895 191.223906 C 0.501895 85.888636 85.888632 0.5019 191.223902 0.5019 C 296.555188 0.5019 381.945908 85.888636 381.945908 191.223906 C 381.945908 296.555193 296.555188 381.945912 191.223902 381.945912 Z M 191.223902 381.945912 " stroke="#3fb24f" stroke-width="1" stroke-opacity="1" stroke-miterlimit="10"/><path fill="#ffffff" d="M 149.25 304.203125 L 68.628906 199.488281 L 99.710938 175.558594 L 150.355469 241.335938 L 275.765625 89.773438 L 305.988281 114.777344 Z M 149.25 304.203125 " fill-opacity="1" fill-rule="nonzero"/></svg>